<svg><defs><font horiz-adv-x="520"><font-face font-family="CalibreSemibold" font-weight="600" panose-1="2 11 7 3 3 2 2 6 2 3" ascent="650" descent="-350" x-height="447" cap-height="614" bbox="-120 -225 957 906" underline-thickness="30" underline-position="-40" unicode-range="U+0020-FB02"/><glyph glyph-name="f_f" unicode="ff" horiz-adv-x="617" d="M607 647v-105q-17 12-44 12-28 0-44.5-16t-16.5-46v-45h93v-100h-93v-347h-122v347h-169v-347h-122v347h-73v100h73v47q0 75 43 117t115 42q42 0 69-12v-105q-17 12-44 12-28 0-44.5-15.5t-16.5-44.5v-41h169v53q0 75 43 117t115 42q42 0 69-12z"/><glyph glyph-name=".notdef" horiz-adv-x="608"/><glyph glyph-name=".null" horiz-adv-x="0"/><glyph glyph-name="nonmarkingreturn" horiz-adv-x="333"/><glyph glyph-name="space" horiz-adv-x="212"/><glyph glyph-name="exclam" unicode="!" horiz-adv-x="217" d="M30 70q0 33 22.5 55.5t55.5 22.5 56-22.5 23-55.5q0-32-23-54.5t-56-22.5-55.5 22.5-22.5 54.5zm33 128l-30 416h151l-30-416h-91z"/><glyph glyph-name="quotedbl" unicode=""" horiz-adv-x="327" d="M38 366v248h101v-248h-101zm150 0v248h101v-248h-101z"/><glyph glyph-name="numbersign" unicode="#" horiz-adv-x="616" d="M552 245l-18-86h-104l-38-159h-99l38 159h-118l-38-159h-97l38 159h-96l19 86h97l30 124h-102l18 86h104l38 159h98l-39-159h118l39 159h98l-38-159h96l-19-86h-97l-30-124h102zm-289 124l-30-124h118l30 124h-118z"/><glyph glyph-name="dollar" unicode="$" horiz-adv-x="502" d="M205-89v97q-74 12-121.5 56.5t-60.5 115.5h124q25-74 114-74 43 0 68 19t25 52q0 28-17 43.5t-56 24.5l-98 24q-146 34-146 163 0 70 46 117.5t122 57.5v91h106v-95q65-15 104.5-56.5t52.5-104.5h-119q-23 67-106 67-40 0-63.5-18.5t-23.5-49.5q0-47 64-64l104-25q150-37 150-168 0-71-44.5-117.5t-118.5-58.5v-97h-106z"/><glyph glyph-name="percent" unicode="%" horiz-adv-x="670" d="M103 0l380 614h84l-380-614h-84zm7 481q0-24 17-41t42-17q24 0 41.5 17t17.5 41q0 25-17.5 42.5t-41.5 17.5q-25 0-42-17.5t-17-42.5zm533-348q0-59-41.5-101t-100.5-42-100.5 42-41.5 101 41.5 100 100.5 41 100.5-41 41.5-100zm-332 348q0-59-41.5-100t-100.5-41-100.5 41-41.5 100 41.5 101 100.5 42 100.5-42 41.5-101zm249-348q0 24-17 41t-42 17-42.5-17-17.5-41q0-25 17.5-42.5t42.5-17.5 42 17.5 17 42.5z"/><glyph glyph-name="ampersand" unicode="&" horiz-adv-x="607" d="M467 465h-122q0 25-16 43t-45 18-49-18.5-20-47.5q0-16 8.5-33.5t17.5-28.5 27-30l138-153q17 50 18 102h112q-1-100-54-186l118-131h-150l-43 47q-73-57-163-57-94 0-151.5 53t-57.5 139q0 51 27.5 94t73.5 68q-40 55-40 114 0 75 52.5 120.5t135.5 45.5 132-45 51-114zm-222-376q53 0 95 31l-138 150q-52-27-52-88 0-41 25.5-67t69.5-26z"/><glyph glyph-name="quotesingle" unicode="'" horiz-adv-x="182" d="M38 366v248h106v-248h-106z"/><glyph glyph-name="parenleft" unicode="(" horiz-adv-x="325" d="M30 283q0 139 74 237.5t201 129.5v-125q-71-19-114-83t-43-159 43-159 114-83v-125q-127 31-201 129.5t-74 237.5z"/><glyph glyph-name="parenright" unicode=")" horiz-adv-x="325" d="M295 283q0-139-74-237.5t-201-129.5v125q71 19 114 83t43 159-43 159-114 83v125q127-31 201-129.5t74-237.5z"/><glyph glyph-name="asterisk" unicode="*" horiz-adv-x="346" d="M109 500l-82 47 32 56 82-48v95h64v-95l82 48 32-56-83-47 83-47-32-56-82 48v-95h-64v95l-82-48-32 56z"/><glyph glyph-name="plus" unicode="+" horiz-adv-x="560" d="M233 515h95v-168h168v-96h-168v-167h-95v167h-169v96h169v168z"/><glyph glyph-name="comma" unicode="," horiz-adv-x="210" d="M14-109l73 112q-26 5-43 24t-17 48q0 33 22.5 54.5t55.5 21.5q34 0 56-22.5t22-62.5q0-42-32-90l-57-85h-80z"/><glyph glyph-name="hyphen" unicode="-" horiz-adv-x="317" d="M38 208v108h241v-108h-241z"/><glyph glyph-name="period" unicode="." horiz-adv-x="210" d="M27 73q0 34 22.5 56.5t55.5 22.5 55.5-22.5 22.5-56.5-22.5-57-55.5-23-55.5 23-22.5 57z"/><glyph glyph-name="slash" unicode="/" horiz-adv-x="373" d="M5-84l248 734h115l-248-734h-115z"/><glyph glyph-name="zero" unicode="0" horiz-adv-x="548" d="M274-10q-108 0-175 88t-67 229 67 229 175 88 175-88 67-229-67-229-175-88zm0 520q-59 0-88-56t-29-147 29-147 88-56 88 56 29 147-29 147-88 56z"/><glyph glyph-name="one" unicode="1" horiz-adv-x="345" d="M285 614v-614h-125v468l-143-71v125l187 92h81z"/><glyph glyph-name="two" unicode="2" horiz-adv-x="479" d="M316 436q0 33-21 53.5t-57 20.5q-37 0-58.5-23.5t-23.5-61.5h-132q9 88 66.5 143.5t146.5 55.5q96 0 151-49.5t55-133.5q0-36-20-74.5t-39.5-61-62.5-67.5l-118-127h247v-111h-425v83l195 205q67 74 82 101 14 25 14 47z"/><glyph glyph-name="three" unicode="3" horiz-adv-x="474" d="M189 263v99h35q41 0 66.5 20t25.5 57q0 33-21.5 54.5t-58.5 21.5q-40 0-63.5-23.5t-26.5-60.5h-124q9 84 67 138.5t148 54.5q92 0 146-49.5t54-129.5q0-44-21-80.5t-54-52.5q41-18 63-54t22-80q0-82-57-135t-153-53q-98 0-160 55t-67 145h126q5-42 30.5-66.5t69.5-24.5q39 0 64 22.5t25 58.5q0 38-27 60.5t-70 22.5h-39z"/><glyph glyph-name="four" unicode="4" d="M358 614l-200-387h136v127h114v-127h93v-105h-93v-122h-114v122h-273v92l212 400h125z"/><glyph glyph-name="five" unicode="5" horiz-adv-x="486" d="M247 300q-52 0-88-41h-100v355h360v-111h-256v-125q41 28 99 28 89 0 143.5-57t54.5-149q0-94-58.5-152t-152.5-58q-96 0-156 54.5t-67 145.5h124q5-42 30.5-66.5t68.5-24.5q41 0 66 28t25 73q0 44-25 72t-68 28z"/><glyph glyph-name="six" unicode="6" horiz-adv-x="510" d="M474 459h-124q-19 60-81 60-53 0-86-52t-33-120v-9q15 29 50 47t79 18q90 0 145-58.5t55-143.5q0-90-58.5-150.5t-158.5-60.5q-125 0-186 111-43 75-43 193 0 146 63.5 238t171.5 92q85 0 137-43t69-122zm-313-261q0-46 28-74.5t74-28.5q44 0 72.5 28.5t28.5 74.5q0 48-28 77t-73 29q-46 0-74-29t-28-77z"/><glyph glyph-name="seven" unicode="7" horiz-adv-x="457" d="M431 523l-201-523h-129l197 502h-282v112h415v-91z"/><glyph glyph-name="eight" unicode="8" horiz-adv-x="499" d="M250 91q42 0 69.5 23.5t27.5 63.5-27.5 63.5-69.5 23.5q-43 0-70.5-23.5t-27.5-63.5 27.5-63.5 70.5-23.5zm0 278q35 0 59 21t24 56q0 36-24 57.5t-59 21.5q-36 0-60-21.5t-24-57.5q0-35 24-56t60-21zm0-379q-95 0-158 48t-63 130q0 56 30.5 95t76.5 52q-40 17-64 53t-24 83q0 81 58.5 127t143.5 46 143-46 58-127q0-47-24-83t-64-53q46-13 76.5-52t30.5-95q0-82-63-130t-157-48z"/><glyph glyph-name="nine" unicode="9" horiz-adv-x="510" d="M36 155h124q19-60 81-60 53 0 86 52t33 120v9q-15-29-50-47t-79-18q-90 0-145 58.5t-55 143.5q0 90 58.5 150.5t158.5 60.5q125 0 186-111 43-75 43-193 0-146-63.5-238t-171.5-92q-85 0-137 43t-69 122zm313 261q0 46-28 74.5t-74 28.5q-44 0-72.5-28.5t-28.5-74.5q0-48 28-77t73-29q46 0 74 29t28 77z"/><glyph glyph-name="colon" unicode=":" horiz-adv-x="210" d="M27 73q0 34 22.5 56.5t55.5 22.5 55.5-22.5 22.5-56.5-22.5-57-55.5-23-55.5 23-22.5 57zm0 285q0 34 22.5 56.5t55.5 22.5 55.5-22.5 22.5-56.5-22.5-57-55.5-23-55.5 23-22.5 57z"/><glyph glyph-name="semicolon" unicode=";" horiz-adv-x="210" d="M14-109l73 112q-26 5-43 24t-17 48q0 33 22.5 54.5t55.5 21.5q34 0 56-22.5t22-62.5q0-42-32-90l-57-85h-80zm13 467q0 34 22.5 56.5t55.5 22.5 55.5-22.5 22.5-56.5-22.5-57-55.5-23-55.5 23-22.5 57z"/><glyph glyph-name="less" unicode="<" horiz-adv-x="441" d="M55 236v123l328 152v-108l-240-106 240-105v-109z"/><glyph glyph-name="equal" unicode="=" horiz-adv-x="576" d="M73 175v87h431v-87h-431zm0 163v88h431v-88h-431z"/><glyph glyph-name="greater" unicode=">" horiz-adv-x="441" d="M386 359v-123l-329-153v109l240 105-240 106v108z"/><glyph glyph-name="question" unicode="?" horiz-adv-x="456" d="M155 70q0 33 23 55.5t56 22.5 56-22.5 23-55.5q0-32-23-54.5t-56-22.5-56 22.5-23 54.5zm281 373q0-16-3-30.5t-10-29-12-24.5-17.5-25-18-21.5-21-23-19.5-20.5q-36-38-36-71h-123q2 36 13.5 60t42.5 60q5 6 25 27.5t27 30.5 15 26 8 34q0 33-20.5 53.5t-56.5 20.5q-37 0-58-24t-23-61h-132q9 88 67 143.5t149 55.5q94 0 148.5-49t54.5-132z"/><glyph glyph-name="at" unicode="@" horiz-adv-x="768" d="M574 386l-41-236q-7-47 30-47 46 0 74 46t28 125q0 104-72 164t-186 60q-133 0-217-85.5t-84-222.5q0-61 18.5-109t48.5-78 70.5-49.5 81-27.5 83.5-8q116 0 224 48v-73q-94-47-224-47-76 0-143 20.5t-122 60.5-87 108-32 155q0 161 107 271t276 110q148 0 242-84.5t94-212.5q0-117-59-180t-144-63q-76 0-112 53-14-24-41-38t-56-14q-62 0-99 43t-37 108q0 86 52.5 149t132.5 63q28 0 51.5-10.5t33.5-26.5l6 28h103zm-144-220l18 100q-5 16-20.5 26.5t-36.5 10.5q-38 0-62.5-33t-24.5-79q0-29 15-47.5t43-18.5q42 0 68 41z"/><glyph glyph-name="A" unicode="A" horiz-adv-x="627" d="M250 614h127l235-614h-130l-55 148h-230l-54-148h-128zm62-154l-75-204h150z"/><glyph glyph-name="B" unicode="B" horiz-adv-x="553" d="M420 317q44-14 72-53.5t28-89.5q0-84-54.5-129t-151.5-45h-255v614h235q98 0 152.5-43t54.5-124q0-48-23-82.5t-58-47.5zm-238 45h104q93 0 93 73 0 71-93 71h-104v-144zm0-100v-154h121q44 0 68 20.5t24 56.5-23.5 56.5-68.5 20.5h-121z"/><glyph glyph-name="C" unicode="C" horiz-adv-x="599" d="M29 307q0 140 81 228.5t205 88.5q106 0 172.5-56.5t84.5-151.5h-127q-35 94-130 94-72 0-114-56.5t-42-146.5q0-89 42-146t114-57q95 0 130 95h127q-18-96-84.5-152.5t-172.5-56.5q-124 0-205 88.5t-81 228.5z"/><glyph glyph-name="D" unicode="D" horiz-adv-x="609" d="M186 113h85q87 0 134 52t47 142q0 91-47 143t-134 52h-85v-389zm-127-113v614h217q139 0 221-83t82-224-82-224-221-83h-217z"/><glyph glyph-name="E" unicode="E" horiz-adv-x="516" d="M59 614h417v-112h-291v-134h264v-109h-264v-146h291v-113h-417v614z"/><glyph glyph-name="F" unicode="F" horiz-adv-x="501" d="M186 0h-127v614h409v-112h-282v-156h261v-111h-261v-235z"/><glyph glyph-name="G" unicode="G" horiz-adv-x="621" d="M467 220h-117v102h242v-54q0-126-74.5-202t-192.5-76q-129 0-212.5 88.5t-83.5 228.5 83.5 228.5 209.5 88.5q108 0 175-56.5t85-151.5h-129q-36 94-131 94-75 0-119-56.5t-44-146.5q0-91 45-147.5t121-56.5q58 0 94.5 31.5t47.5 85.5z"/><glyph glyph-name="H" unicode="H" horiz-adv-x="652" d="M465 614h128v-614h-128v258h-278v-258h-128v614h128v-244h278v244z"/><glyph glyph-name="I" unicode="I" horiz-adv-x="245" d="M187 614v-614h-128v614h128z"/><glyph glyph-name="J" unicode="J" horiz-adv-x="509" d="M15 195h132q8-89 90-89 95 0 95 117v391h128v-392q0-114-60-173t-162-59q-101 0-159 56t-64 149z"/><glyph glyph-name="K" unicode="K" horiz-adv-x="593" d="M187 614v-276l231 276h155l-234-275 243-339h-155l-182 251-58-69v-182h-128v614h128z"/><glyph glyph-name="L" unicode="L" horiz-adv-x="507" d="M59 0v614h128v-501h286v-113h-414z"/><glyph glyph-name="M" unicode="M" horiz-adv-x="747" d="M418 0h-87l-152 401v-401h-120v614h152l164-433 163 433h150v-614h-121v401z"/><glyph glyph-name="N" unicode="N" horiz-adv-x="632" d="M573 614v-614h-101l-290 409v-409h-123v614h120l271-388v388h123z"/><glyph glyph-name="O" unicode="O" horiz-adv-x="640" d="M610 307q0-138-81.5-227.5t-209.5-89.5-209 89.5-81 227.5q0 139 81 228t209 89 209.5-89.5 81.5-227.5zm-129 0q0 91-44.5 147t-117.5 56q-72 0-116-56t-44-147 44-147 116-56q73 0 117.5 56t44.5 147z"/><glyph glyph-name="P" unicode="P" horiz-adv-x="552" d="M309 213h-123v-213h-127v614h250q99 0 157.5-52.5t58.5-148.5-58.5-148-157.5-52zm90 200q0 43-25 67.5t-73 24.5h-115v-183h115q48 0 73 25t25 66z"/><glyph glyph-name="Q" unicode="Q" horiz-adv-x="639" d="M494-43l-50 62q-56-29-125-29-128 0-209 89.5t-81 227.5q0 139 81 228t209 89 209.5-89.5 81.5-227.5q0-135-83-226l49-60zm-13 350q0 91-44.5 147t-117.5 56q-72 0-116-56t-44-147 44-148.5 116-57.5q31 0 53 7l-50 63 82 63 48-60q29 50 29 133z"/><glyph glyph-name="R" unicode="R" horiz-adv-x="563" d="M253 229h-67v-229h-127v614h253q99 0 157-51t58-144q0-72-37-118.5t-103-62.5l162-238h-144zm-67 276v-171h118q47 0 72 23t25 62q0 40-25 63t-72 23h-118z"/><glyph glyph-name="S" unicode="S" horiz-adv-x="530" d="M17 175h132q25-79 122-79 47 0 75 20.5t28 56.5q0 28-17.5 44t-57.5 25l-110 25q-156 35-156 168 0 83 62 136t159 53q102 0 163.5-48.5t77.5-129.5h-127q-25 73-113 73-44 0-70.5-19.5t-26.5-52.5q0-51 69-67l112-26q161-37 161-173 0-87-64-139t-164-52q-103 0-171 49t-84 136z"/><glyph glyph-name="T" unicode="T" horiz-adv-x="575" d="M26 502v112h524v-112h-198v-502h-129v502h-197z"/><glyph glyph-name="U" unicode="U" horiz-adv-x="610" d="M305-10q-117 0-186 66.5t-69 190.5v367h128v-354q0-155 127-155t127 155v354h128v-367q0-124-68.5-190.5t-186.5-66.5z"/><glyph glyph-name="V" unicode="V" horiz-adv-x="614" d="M369 0h-124l-230 614h135l159-444 159 444h132z"/><glyph glyph-name="W" unicode="W" horiz-adv-x="794" d="M349 614h100l106-413 101 413h126l-160-614h-117l-108 405-108-405h-117l-160 614h129l100-413z"/><glyph glyph-name="X" unicode="X" horiz-adv-x="586" d="M569 614l-203-299 213-315h-144l-144 213-143-213h-141l213 313-203 301h145l132-199 135 199h140z"/><glyph glyph-name="Y" unicode="Y" horiz-adv-x="593" d="M299 354l148 260h135l-223-381v-233h-127v233l-221 381h139z"/><glyph glyph-name="Z" unicode="Z" horiz-adv-x="554" d="M514 113v-113h-474v93l308 409h-303v112h465v-92l-306-409h310z"/><glyph glyph-name="bracketleft" unicode="[" horiz-adv-x="322" d="M175 543v-520h127v-107h-243v734h243v-107h-127z"/><glyph glyph-name="backslash" unicode="\" horiz-adv-x="373" d="M120 650l248-734h-115l-248 734h115z"/><glyph glyph-name="bracketright" unicode="]" horiz-adv-x="322" d="M147 23v520h-127v107h243v-734h-243v107h127z"/><glyph glyph-name="asciicircum" unicode="^" horiz-adv-x="409" d="M148 614h113l138-220h-116l-78 126-79-126h-116z"/><glyph glyph-name="underscore" unicode="_" horiz-adv-x="381" d="M20-143v101h341v-101h-341z"/><glyph glyph-name="grave" unicode="`" horiz-adv-x="500" d="M351 508h-113l-89 142h123z"/><glyph glyph-name="a" unicode="a" horiz-adv-x="468" d="M421 0h-119v24q-12-12-43-22t-66-10q-71 0-118.5 39t-47.5 106q0 63 49.5 103t123.5 40q28 0 58-8t44-18v33q0 30-18.5 49.5t-54.5 19.5q-50 0-66-42h-118q10 62 61.5 102.5t126.5 40.5q89 0 138.5-45.5t49.5-126.5v-285zm-119 122v32q-8 18-30.5 28.5t-50.5 10.5q-32 0-55.5-14t-23.5-41 23-41 56-14q28 0 50.5 10.5t30.5 28.5z"/><glyph glyph-name="b" unicode="b" horiz-adv-x="519" d="M178 37v-37h-125v650h125v-240q16 19 47 33t65 14q94 0 148.5-67t54.5-167-54.5-166.5-148.5-66.5q-34 0-65 14t-47 33zm0 260v-147q11-23 33.5-37.5t50.5-14.5q49 0 78 35t29 90-29 90.5-78 35.5q-27 0-50-14.5t-34-37.5z"/><glyph glyph-name="c" unicode="c" horiz-adv-x="459" d="M26 223q0 104 60 169t155 65q82 0 134-44t62-117h-122q-5 26-24.5 40.5t-49.5 14.5q-42 0-67-35t-25-93q0-57 25-92t67-35q30 0 49.5 14.5t24.5 40.5h122q-10-73-61.5-117t-134.5-44q-95 0-155 65t-60 168z"/><glyph glyph-name="d" unicode="d" horiz-adv-x="519" d="M341 0v37q-16-19-47-33t-65-14q-94 0-148.5 66.5t-54.5 166.5 54.5 167 148.5 67q34 0 65-14t47-33v240h125v-650h-125zm0 150v147q-11 23-34 37.5t-50 14.5q-49 0-78-35.5t-29-90.5 29-90 78-35q28 0 50.5 14.5t33.5 37.5z"/><glyph glyph-name="e" unicode="e" horiz-adv-x="469" d="M326 146h115q-12-73-63.5-114.5t-134.5-41.5q-97 0-157 64.5t-60 168.5q0 101 60.5 167.5t154.5 66.5q96 0 149.5-60.5t53.5-161.5v-38h-298q3-50 29-78.5t68-28.5q68 0 83 56zm-84 210q-76 0-93-84h173q-1 37-22 60.5t-58 23.5z"/><glyph glyph-name="f" unicode="f" horiz-adv-x="326" d="M316 647v-105q-17 12-44 12-61 0-61-62v-45h93v-100h-93v-347h-122v347h-73v100h73v53q0 75 43 117t115 42q42 0 69-12z"/><glyph glyph-name="g" unicode="g" horiz-adv-x="516" d="M339 30v26q-38-46-110-46-93 0-148 65t-55 159q0 93 55 158t148 65q71 0 110-45v35h123v-398q0-111-60-167.5t-159-56.5q-87 0-142.5 42t-65.5 117h120q15-63 88-63 96 0 96 109zm0 131v146q-28 46-84 46-49 0-77-33t-28-86 28-86.5 77-33.5q27 0 49.5 13.5t34.5 33.5z"/><glyph glyph-name="h" unicode="h" horiz-adv-x="505" d="M54 0v650h124v-244q44 51 120 51 75 0 116.5-45t41.5-120v-292h-124v266q0 36-18.5 57.5t-54.5 21.5q-29 0-51.5-16.5t-29.5-45.5v-283h-124z"/><glyph glyph-name="i" unicode="i" horiz-adv-x="232" d="M178 447v-447h-124v447h124zm11 129q0-31-21.5-51t-51.5-20q-31 0-52.5 20t-21.5 51q0 30 22 50.5t52 20.5 51.5-20.5 21.5-50.5z"/><glyph glyph-name="j" unicode="j" horiz-adv-x="230" d="M178 447v-465q0-75-40-116t-116-41q-33 0-48 5v99q21-3 27-3 53 0 53 57v464h124zm11 129q0-31-21.5-51t-51.5-20q-31 0-52.5 20t-21.5 51q0 30 22 50.5t52 20.5 51.5-20.5 21.5-50.5z"/><glyph glyph-name="k" unicode="k" horiz-adv-x="499" d="M345 0l-131 180-36-39v-141h-124v650h124v-369l153 166h154l-181-190 188-257h-147z"/><glyph glyph-name="l" unicode="l" horiz-adv-x="232" d="M178 650v-650h-124v650h124z"/><glyph glyph-name="m" unicode="m" horiz-adv-x="742" d="M411 400q52 57 135 57 69 0 108-44.5t39-120.5v-292h-124v266q0 37-16.5 58.5t-47.5 21.5q-25 0-44-15t-25-43v-288h-125v266q0 80-63 80-25 0-44.5-15.5t-25.5-42.5v-288h-124v447h124v-37q37 47 113 47 77 0 120-57z"/><glyph glyph-name="n" unicode="n" horiz-adv-x="505" d="M54 0v447h124v-41q44 51 120 51 75 0 116.5-45t41.5-120v-292h-124v266q0 36-18.5 57.5t-54.5 21.5q-29 0-51.5-16.5t-29.5-45.5v-283h-124z"/><glyph glyph-name="o" unicode="o" horiz-adv-x="489" d="M464 223q0-103-61-168t-158-65-158 65-61 168q0 104 61 169t158 65 158-65 61-169zm-123 0q0 58-25.5 93.5t-70.5 35.5-70.5-35.5-25.5-93.5q0-57 25.5-92.5t70.5-35.5 70.5 35.5 25.5 92.5z"/><glyph glyph-name="p" unicode="p" horiz-adv-x="519" d="M178 37v-202h-124v612h124v-37q16 19 47 33t65 14q94 0 149-67.5t55-166.5-55-166-149-67q-34 0-65 14t-47 33zm0 260v-147q11-23 34-37.5t50-14.5q49 0 78 35t29 90-29 90.5-78 35.5q-27 0-49.5-14.5t-34.5-37.5z"/><glyph glyph-name="q" unicode="q" horiz-adv-x="519" d="M341-165v202q-16-19-47-33t-65-14q-94 0-149 67t-55 166 55 166.5 149 67.5q34 0 65-14t47-33v37h124v-612h-124zm0 315v147q-12 23-34.5 37.5t-49.5 14.5q-49 0-78-35.5t-29-90.5 29-90 78-35q27 0 50 14.5t34 37.5z"/><glyph glyph-name="r" unicode="r" horiz-adv-x="351" d="M325 449v-124q-25 15-62 15-32 0-55-16.5t-30-46.5v-277h-124v447h124v-44q32 54 100 54 33 0 47-8z"/><glyph glyph-name="s" unicode="s" horiz-adv-x="437" d="M25 133h123q15-49 75-49 63 0 63 44 0 15-10.5 23.5t-34.5 14.5l-90 20q-116 27-116 126 0 64 51 104.5t127 40.5q83 0 130.5-36.5t59.5-101.5h-118q-14 44-70 44-24 0-41.5-11t-17.5-31q0-25 40-35l92-21q119-29 119-130 0-67-51.5-106t-131.5-39q-83 0-136 37.5t-63 105.5z"/><glyph glyph-name="t" unicode="t" horiz-adv-x="345" d="M81 135v212h-68v100h68v121h123v-121h98v-100h-98v-196q0-51 51-51 31 0 54 15v-110q-26-14-80-14-70 0-109 36t-39 108z"/><glyph glyph-name="u" unicode="u" horiz-adv-x="503" d="M450 447v-447h-124v41q-46-51-120-51t-115.5 45-41.5 120v292h124v-267q0-37 18-58t54-21q29 0 51 16.5t29 45.5v284h125z"/><glyph glyph-name="v" unicode="v" horiz-adv-x="485" d="M302 0h-120l-169 447h130l103-297 101 297h125z"/><glyph glyph-name="w" unicode="w" horiz-adv-x="672" d="M385 447l74-285 80 285h120l-136-447h-114l-73 274-73-274h-114l-136 447h124l80-285 73 285h95z"/><glyph glyph-name="x" unicode="x" horiz-adv-x="477" d="M459 447l-153-216 163-231h-137l-96 140-97-140h-130l161 228-152 219h137l86-127 88 127h130z"/><glyph glyph-name="y" unicode="y" horiz-adv-x="487" d="M241-165h-122l65 163-171 449h131l103-297 102 297h125z"/><glyph glyph-name="z" unicode="z" horiz-adv-x="453" d="M412 100v-100h-374v80l215 267h-207v100h362v-80l-211-267h215z"/><glyph glyph-name="braceleft" unicode="{" horiz-adv-x="353" d="M213 200v-148q0-29 29-29h91v-107h-108q-57 0-93 36t-36 94v154q0 29-29 29h-47v108h47q29 0 29 29v154q0 58 36 94t93 36h108v-107h-91q-29 0-29-29v-148q0-54-47-83 47-29 47-83z"/><glyph glyph-name="bar" unicode="|" horiz-adv-x="228" d="M59-84v734h110v-734h-110z"/><glyph glyph-name="braceright" unicode="}" horiz-adv-x="353" d="M140 52v148q0 54 47 83-47 29-47 83v148q0 29-29 29h-91v107h108q57 0 93-36t36-94v-154q0-29 29-29h47v-108h-47q-29 0-29-29v-154q0-58-36-94t-93-36h-108v107h91q29 0 29 29z"/><glyph glyph-name="asciitilde" unicode="~" horiz-adv-x="428" d="M304 347h88q0-72-28-112t-78-40q-27 0-50.5 14.5t-42 29.5-33.5 15q-36 0-36-55h-88q0 72 28 112t78 40q33 0 71.5-29.5t54.5-29.5q36 0 36 55z"/><glyph glyph-name="uni00A0" horiz-adv-x="212"/><glyph glyph-name="exclamdown" unicode="¡" horiz-adv-x="224" d="M30 448q0 32 22.5 54.5t55.5 22.5 56-22.5 23-54.5q0-33-23-55.5t-56-22.5-55.5 22.5-22.5 55.5zm3-544l30 416h91l30-416h-151z"/><glyph glyph-name="cent" unicode="¢" horiz-adv-x="459" d="M26 233q0 89 45 150.5t120 78.5v90h106v-91q60-14 96-56.5t43-104.5h-121q-4 28-24 44.5t-50 16.5q-42 0-67-35t-25-93q0-57 25-92t67-35q30 0 50 16t24 44h121q-7-62-43-104.5t-96-55.5v-93h-106v92q-75 16-120 77.5t-45 150.5z"/><glyph glyph-name="sterling" unicode="£" horiz-adv-x="497" d="M218 424v-73h128v-97h-128v-60q0-63-21-91h276v-103h-446v103h52q20 35 20 91v60h-72v97h72v71q0 87 52.5 144.5t139.5 57.5q79 0 127.5-45.5t55.5-120.5h-115q-6 61-67 61-36 0-55-26t-19-69z"/><glyph glyph-name="yen" unicode="¥" horiz-adv-x="561" d="M65 256v84h105l-151 274h137l127-242 127 242h132l-153-274h106v-84h-152v-56h152v-84h-152v-116h-126v116h-152v84h152v56h-152z"/><glyph glyph-name="section" unicode="§" horiz-adv-x="471" d="M382 104q21-29 21-66 0-63-47.5-100.5t-124.5-37.5q-83 0-131 39t-56 108h113q9-55 71-55 24 0 40.5 11t16.5 32q0 17-11 28.5t-36 26.5l-110 67q-52 31-80 65t-28 82q0 78 69 116-21 27-21 66 0 63 47.5 100.5t123.5 37.5q84 0 132-39t56-108h-113q-9 55-71 55-24 0-41-11t-17-32q0-17 11-28t36-27l111-67q52-31 80-65t28-82q0-78-69-116zm-199 143l122-78q34 9 34 45 0 29-52 63l-121 78q-34-8-34-45 0-30 51-63z"/><glyph glyph-name="dieresis" unicode="¨" horiz-adv-x="500" d="M101 570q0 28 19.5 47.5t47.5 19.5q27 0 46.5-19.5t19.5-47.5q0-27-19.5-46.5t-46.5-19.5q-28 0-47.5 19.5t-19.5 46.5zm164 0q0 28 19.5 47.5t46.5 19.5 47-19.5 20-47.5q0-27-20-46.5t-47-19.5-46.5 19.5-19.5 46.5z"/><glyph glyph-name="copyright" unicode="©" horiz-adv-x="704" d="M669 307q0-136-92.5-226.5t-224.5-90.5-224.5 90.5-92.5 226.5 92.5 226.5 224.5 90.5 224.5-90.5 92.5-226.5zm-47 0q0 116-79 193.5t-191 77.5-191-77.5-79-193.5 79-193.5 191-77.5 191 77.5 79 193.5zm-454 2q0 88 52.5 143.5t134.5 55.5q71 0 114-37.5t54-99.5h-105q-14 43-63 43-39 0-61-29.5t-22-75.5 22-76 61-30q49 0 63 44h105q-11-62-54-99.5t-114-37.5q-82 0-134.5 55.5t-52.5 143.5z"/><glyph glyph-name="ordfeminine" unicode="ª" horiz-adv-x="308" d="M288 317h-95v15q-23-21-73-21-47 0-79 26t-32 71q0 43 33 70t83 27q40 0 68-17v20q0 16-10.5 27t-30.5 11q-32 0-38-24h-91q6 45 42 74t91 29q62 0 97-32t35-89v-187zm-95 84v18q-12 22-46 22-18 0-30.5-8t-12.5-23q0-30 43-30 35 0 46 21z"/><glyph glyph-name="guillemotleft" unicode="«" horiz-adv-x="420" d="M223 61h-106l-92 161 92 161h106l-92-161zm172 0h-106l-92 161 92 161h106l-92-161z"/><glyph glyph-name="registered" unicode="®" horiz-adv-x="407" d="M384 441q0-78-53-130.5t-128-52.5-128 52.5-53 130.5 53 130.5 128 52.5 128-52.5 53-130.5zm-33 0q0 66-43 109t-105 43-105-43-43-109 43-109 105-43 105 43 43 109zm-152-34h-17v-61h-54v192h90q33 0 52-18t19-49q0-45-37-58l44-67h-60zm38 64q0 22-25 22h-30v-43h30q25 0 25 21z"/><glyph glyph-name="macron" unicode="¯" horiz-adv-x="500" d="M131 516v91h237v-91h-237z"/><glyph glyph-name="degree" unicode="°" horiz-adv-x="357" d="M119 487q0-25 17.5-43t42.5-18q24 0 41.5 18t17.5 43-17.5 43.5-41.5 18.5q-25 0-42.5-18t-17.5-44zm195 0q0-56-39.5-96t-95.5-40-95.5 40-39.5 96q0 57 39.5 97t95.5 40 95.5-40 39.5-97z"/><glyph glyph-name="plusminus" unicode="±" horiz-adv-x="569" d="M240 548h90v-130h164v-90h-164v-130h-90v130h-165v90h165v130zm-165-486v91h419v-91h-419z"/><glyph glyph-name="twosuperior" unicode="²" horiz-adv-x="298" d="M181 509q0 13-8.5 21t-22.5 8-23.5-10-9.5-24h-96q5 50 39.5 82.5t88.5 32.5q56 0 89.5-29.5t33.5-77.5q0-21-10-41t-21-32.5-33-33.5l-58-55h122v-77h-248v60l118 116q39 37 39 60z"/><glyph glyph-name="threesuperior" unicode="³" horiz-adv-x="295" d="M119 412v66h23q41 0 41 33 0 15-9.5 24t-25.5 9-26-11-12-27h-89q6 48 38.5 80.5t85.5 32.5q57 0 89.5-29t32.5-77q0-21-10.5-40.5t-25.5-28.5q40-20 40-68 0-49-33.5-79t-91.5-30q-57 0-91.5 31.5t-37.5 84.5h93q1-18 11-29t28-11q17 0 27 10t10 26q0 33-40 33h-27z"/><glyph glyph-name="acute" unicode="´" horiz-adv-x="500" d="M261 508h-112l79 142h123z"/><glyph glyph-name="paragraph" unicode="¶" horiz-adv-x="538" d="M388-90v704h91v-704h-91zm-155 0v349q-88 0-154 45.5t-66 132.5 66 132 154 45h91v-704h-91z"/><glyph glyph-name="periodcentered" unicode="·" horiz-adv-x="214" d="M29 263q0 34 22.5 56.5t55.5 22.5 55.5-22.5 22.5-56.5-22.5-57-55.5-23-55.5 23-22.5 57z"/><glyph glyph-name="cedilla" unicode="¸" horiz-adv-x="500" d="M265-186h-110l70 139h114z"/><glyph glyph-name="onesuperior" unicode="¹" horiz-adv-x="237" d="M196 614v-341h-91v237l-87-43v92l115 55h63z"/><glyph glyph-name="ordmasculine" unicode="º" horiz-adv-x="324" d="M315 468q0-70-42.5-114t-110.5-44-111 44-43 114q0 69 43 113t111 44 110.5-44 42.5-113zm-101 0q0 32-14 52.5t-38 20.5-38-20.5-14-52.5q0-33 14-53t38-20 38 20 14 53z"/><glyph glyph-name="guillemotright" unicode="»" horiz-adv-x="420" d="M303 61h-106l92 161-92 161h106l92-161zm-172 0h-106l92 161-92 161h106l92-161z"/><glyph glyph-name="onequarter" unicode="¼" horiz-adv-x="702" d="M599 614l-431-614h-90l431 614h90zm-390 0v-341h-90v237l-88-43v92l115 55h63zm369-273l-96-204h53v55h80v-55h47v-76h-47v-61h-80v61h-152v69l106 211h89z"/><glyph glyph-name="onehalf" unicode="½" horiz-adv-x="716" d="M599 614l-431-614h-90l431 614h90zm-390 0v-341h-90v237l-88-43v92l115 55h63zm365-378q0 14-8 22t-22 8-23.5-10-10.5-24h-95q5 50 39.5 82t87.5 32q57 0 90-29t33-77q0-21-10.5-42t-20-31.5-32.5-34.5l-58-54h122v-78h-249v61l119 115q38 40 38 60z"/><glyph glyph-name="threequarters" unicode="¾" horiz-adv-x="736" d="M632 614l-430-614h-90l431 614h89zm-492-202v66h23q41 0 41 33 0 15-9 24t-25 9-26.5-11-12.5-27h-89q6 49 38.5 81t86.5 32q56 0 89-29t33-77q0-21-10.5-40.5t-26.5-28.5q40-20 40-68 0-49-33-79t-91-30-92.5 31.5-37.5 84.5h93q1-18 11.5-29t27.5-11 27.5 10 10.5 26q0 33-41 33h-27zm472-71l-97-204h54v55h79v-55h48v-76h-48v-61h-79v61h-152v69l105 211h90z"/><glyph glyph-name="questiondown" unicode="¿" horiz-adv-x="456" d="M301 448q0-33-23-55.5t-56-22.5-56 22.5-23 55.5q0 32 23 54.5t56 22.5 56-22.5 23-54.5zm-281-373q0 16 3 30.5t10 29 12 24.5 17.5 25 18 21.5 21 23 19.5 20.5q36 38 36 71h123q-2-36-13.5-60t-42.5-60q-5-6-25-27.5t-27-30.5-15-26-8-34q0-33 20.5-53.5t56.5-20.5q37 0 58 24t23 61h132q-9-88-67-143.5t-149-55.5q-94 0-148.5 49t-54.5 132z"/><glyph glyph-name="Agrave" unicode="À" horiz-adv-x="627" d="M250 614h127l235-614h-130l-55 148h-230l-54-148h-128zm129 55h-122l-93 122h135zm-67-209l-75-204h150z"/><glyph glyph-name="Aacute" unicode="Á" horiz-adv-x="627" d="M250 614h127l235-614h-130l-55 148h-230l-54-148h-128zm118 55h-122l80 122h135zm-56-209l-75-204h150z"/><glyph glyph-name="Acircumflex" unicode="Â" horiz-adv-x="627" d="M250 614h127l235-614h-130l-55 148h-230l-54-148h-128zm115 182l100-127h-105l-47 54-47-54h-105l100 127h104zm-53-336l-75-204h150z"/><glyph glyph-name="Atilde" unicode="Ã" horiz-adv-x="627" d="M250 614h127l235-614h-130l-55 148h-230l-54-148h-128zm141 188h71q0-63-21-101t-64-38q-26 0-61.5 21t-51.5 21q-28 0-29-39h-71q0 63 21 101t64 38q26 0 61.5-21t51.5-21q28 0 29 39zm-79-342l-75-204h150z"/><glyph glyph-name="Adieresis" unicode="Ä" horiz-adv-x="627" d="M250 614h127l235-614h-130l-55 148h-230l-54-148h-128zm62-154l-75-204h150zm17 270q0 29 19.5 48.5t47.5 19.5 48-19.5 20-48.5q0-27-20-46.5t-48-19.5-47.5 19.5-19.5 46.5zm-165 0q0 29 19 48.5t48 19.5q28 0 47.5-19.5t19.5-48.5q0-27-19.5-46.5t-47.5-19.5-47.5 19.5-19.5 46.5z"/><glyph glyph-name="Aring" unicode="Å" horiz-adv-x="627" d="M250 614h127l235-614h-130l-55 148h-230l-54-148h-128zm162 129q0-41-28.5-69t-70.5-28-70.5 28-28.5 69 28.5 69 70.5 28 70.5-28 28.5-69zm-100-283l-75-204h150zm41 283q0 17-11.5 28.5t-28.5 11.5q-16 0-27.5-11.5t-11.5-28.5 11-28 28-11 28.5 11.5 11.5 27.5z"/><glyph glyph-name="AE" unicode="Æ" horiz-adv-x="879" d="M365 614h474v-112h-272v-134h245v-109h-245v-146h272v-113h-398v148h-208l-84-148h-134zm76-102l-146-256h146v256z"/><glyph glyph-name="Ccedilla" unicode="Ç" horiz-adv-x="599" d="M29 307q0 140 81 228.5t205 88.5q106 0 172.5-56.5t84.5-151.5h-127q-35 94-130 94-72 0-114-56.5t-42-146.5q0-89 42-146t114-57q95 0 130 95h127q-18-96-84.5-152.5t-172.5-56.5q-124 0-205 88.5t-81 228.5zm276-493h-110l70 139h114z"/><glyph glyph-name="Egrave" unicode="È" horiz-adv-x="516" d="M338 669h-122l-93 122h135zm-279-55h417v-112h-291v-134h264v-109h-264v-146h291v-113h-417v614z"/><glyph glyph-name="Eacute" unicode="É" horiz-adv-x="516" d="M326 669h-122l80 122h135zm-267-55h417v-112h-291v-134h264v-109h-264v-146h291v-113h-417v614z"/><glyph glyph-name="Ecircumflex" unicode="Ê" horiz-adv-x="516" d="M59 614h417v-112h-291v-134h264v-109h-264v-146h291v-113h-417v614zm264 182l100-127h-105l-47 54-47-54h-105l100 127h104z"/><glyph glyph-name="Edieresis" unicode="Ë" horiz-adv-x="516" d="M122 730q0 29 19 48.5t48 19.5q28 0 47.5-19.5t19.5-48.5q0-27-19.5-46.5t-47.5-19.5-47.5 19.5-19.5 46.5zm165 0q0 29 19.5 48.5t47.5 19.5 48-19.5 20-48.5q0-27-20-46.5t-48-19.5-47.5 19.5-19.5 46.5zm-228-116h417v-112h-291v-134h264v-109h-264v-146h291v-113h-417v614z"/><glyph glyph-name="Igrave" unicode="Ì" horiz-adv-x="245" d="M187 614v-614h-128v614h128zm2 55h-122l-93 122h135z"/><glyph glyph-name="Iacute" unicode="Í" horiz-adv-x="245" d="M187 614v-614h-128v614h128zm-9 55h-122l80 122h135z"/><glyph glyph-name="Icircumflex" unicode="Î" horiz-adv-x="245" d="M187 614v-614h-128v614h128zm-12 182l100-127h-105l-47 54-47-54h-105l100 127h104z"/><glyph glyph-name="Idieresis" unicode="Ï" horiz-adv-x="245" d="M187 614v-614h-128v614h128zm-214 116q0 29 19 48.5t48 19.5q28 0 47.5-19.5t19.5-48.5q0-27-19.5-46.5t-47.5-19.5-47.5 19.5-19.5 46.5zm165 0q0 29 19.5 48.5t47.5 19.5 48-19.5 20-48.5q0-27-20-46.5t-48-19.5-47.5 19.5-19.5 46.5z"/><glyph glyph-name="Eth" unicode="Ð" horiz-adv-x="626" d="M25 264v103h51v247h217q139 0 221-83t82-224-82-224-221-83h-217v264h-51zm178-151h85q87 0 134 52t47 142q0 91-47 143t-134 52h-85v-135h103v-103h-103v-151z"/><glyph glyph-name="Ntilde" unicode="Ñ" horiz-adv-x="632" d="M394 802h71q0-63-21-101t-64-38q-26 0-61.5 21t-51.5 21q-27 0-29-39h-71q0 63 21 101t64 38q26 0 61.5-21t51.5-21q27 0 29 39zm179-188v-614h-101l-290 409v-409h-123v614h120l271-388v388h123z"/><glyph glyph-name="Ograve" unicode="Ò" horiz-adv-x="640" d="M386 669h-122l-93 122h135zm224-362q0-138-81.5-227.5t-209.5-89.5-209 89.5-81 227.5q0 139 81 228t209 89 209.5-89.5 81.5-227.5zm-129 0q0 91-44.5 147t-117.5 56q-72 0-116-56t-44-147 44-147 116-56q73 0 117.5 56t44.5 147z"/><glyph glyph-name="Oacute" unicode="Ó" horiz-adv-x="640" d="M374 669h-122l80 122h135zm236-362q0-138-81.5-227.5t-209.5-89.5-209 89.5-81 227.5q0 139 81 228t209 89 209.5-89.5 81.5-227.5zm-129 0q0 91-44.5 147t-117.5 56q-72 0-116-56t-44-147 44-147 116-56q73 0 117.5 56t44.5 147z"/><glyph glyph-name="Ocircumflex" unicode="Ô" horiz-adv-x="640" d="M610 307q0-138-81.5-227.5t-209.5-89.5-209 89.5-81 227.5q0 139 81 228t209 89 209.5-89.5 81.5-227.5zm-129 0q0 91-44.5 147t-117.5 56q-72 0-116-56t-44-147 44-147 116-56q73 0 117.5 56t44.5 147zm-110 489l100-127h-105l-47 54-47-54h-105l100 127h104z"/><glyph glyph-name="Otilde" unicode="Õ" horiz-adv-x="640" d="M397 802h71q0-63-21-101t-64-38q-26 0-61.5 21t-51.5 21q-28 0-29-39h-71q0 63 21 101t64 38q26 0 61.5-21t51.5-21q28 0 29 39zm213-495q0-138-81.5-227.5t-209.5-89.5-209 89.5-81 227.5q0 139 81 228t209 89 209.5-89.5 81.5-227.5zm-129 0q0 91-44.5 147t-117.5 56q-72 0-116-56t-44-147 44-147 116-56q73 0 117.5 56t44.5 147z"/><glyph glyph-name="Odieresis" unicode="Ö" horiz-adv-x="640" d="M170 730q0 29 19 48.5t48 19.5q28 0 47.5-19.5t19.5-48.5q0-27-19.5-46.5t-47.5-19.5-47.5 19.5-19.5 46.5zm165 0q0 29 19.5 48.5t47.5 19.5 48-19.5 20-48.5q0-27-20-46.5t-48-19.5-47.5 19.5-19.5 46.5zm275-423q0-138-81.5-227.5t-209.5-89.5-209 89.5-81 227.5q0 139 81 228t209 89 209.5-89.5 81.5-227.5zm-129 0q0 91-44.5 147t-117.5 56q-72 0-116-56t-44-147 44-147 116-56q73 0 117.5 56t44.5 147z"/><glyph glyph-name="multiply" unicode="×" horiz-adv-x="495" d="M182 298l-122 120 66 66 121-121 121 121 67-66-122-120 122-121-67-67-121 121-121-121-66 67z"/><glyph glyph-name="Oslash" unicode="Ø" horiz-adv-x="649" d="M50 31l52 63q-68 87-68 213 0 139 81 228t209 89q97 0 171-55l48 58 58-44-54-65q68-87 68-211 0-138-81.5-227.5t-209.5-89.5q-97 0-169 53l-47-56zm113 276q0-67 21-113l236 284q-40 32-96 32-72 0-116.5-56.5t-44.5-146.5zm323 0q0 65-21 111l-235-284q39-30 94-30 73 0 117.5 56.5t44.5 146.5z"/><glyph glyph-name="Ugrave" unicode="Ù" horiz-adv-x="610" d="M371 669h-122l-93 122h135zm-66-679q-117 0-186 66.5t-69 190.5v367h128v-354q0-155 127-155t127 155v354h128v-367q0-124-68.5-190.5t-186.5-66.5z"/><glyph glyph-name="Uacute" unicode="Ú" horiz-adv-x="610" d="M360 669h-122l80 122h135zm-55-679q-117 0-186 66.5t-69 190.5v367h128v-354q0-155 127-155t127 155v354h128v-367q0-124-68.5-190.5t-186.5-66.5z"/><glyph glyph-name="Ucircumflex" unicode="Û" horiz-adv-x="610" d="M305-10q-117 0-186 66.5t-69 190.5v367h128v-354q0-155 127-155t127 155v354h128v-367q0-124-68.5-190.5t-186.5-66.5zm52 806l100-127h-105l-47 54-47-54h-105l100 127h104z"/><glyph glyph-name="Udieresis" unicode="Ü" horiz-adv-x="610" d="M156 730q0 29 19 48.5t48 19.5q28 0 47.5-19.5t19.5-48.5q0-27-19.5-46.5t-47.5-19.5-47.5 19.5-19.5 46.5zm165 0q0 29 19.5 48.5t47.5 19.5 48-19.5 20-48.5q0-27-20-46.5t-48-19.5-47.5 19.5-19.5 46.5zm-16-740q-117 0-186 66.5t-69 190.5v367h128v-354q0-155 127-155t127 155v354h128v-367q0-124-68.5-190.5t-186.5-66.5z"/><glyph glyph-name="Yacute" unicode="Ý" horiz-adv-x="593" d="M299 354l148 260h135l-223-381v-233h-127v233l-221 381h139zm52 315h-122l80 122h135z"/><glyph glyph-name="Thorn" unicode="Þ" horiz-adv-x="552" d="M309 114h-123v-114h-127v614h127v-99h123q100 0 158-52t58-149q0-96-58.5-148t-157.5-52zm90 200q0 43-25 67.5t-73 24.5h-115v-183h115q48 0 73 25t25 66z"/><glyph glyph-name="germandbls" unicode="ß" horiz-adv-x="529" d="M389 361q50-17 82-63t32-109q0-91-55-142.5t-143-51.5q-47 0-79 11v104q23-9 60-9 47 0 73 26t26 73q0 48-31.5 74.5t-87.5 26.5h-36v101h31q38 0 59 19.5t21 57.5q0 33-21.5 54t-57.5 21q-42 0-64-28.5t-22-73.5v-452h-122v447q0 97 56.5 154.5t150.5 57.5 145.5-47 51.5-122q0-47-19.5-81.5t-49.5-47.5z"/><glyph glyph-name="agrave" unicode="à" horiz-adv-x="468" d="M421 0h-119v24q-12-12-43-22t-66-10q-71 0-118.5 39t-47.5 106q0 63 49.5 103t123.5 40q28 0 58-8t44-18v33q0 30-18.5 49.5t-54.5 19.5q-50 0-66-42h-118q10 62 61.5 102.5t126.5 40.5q89 0 138.5-45.5t49.5-126.5v-285zm-119 122v32q-8 18-30.5 28.5t-50.5 10.5q-32 0-55.5-14t-23.5-41 23-41 56-14q28 0 50.5 10.5t30.5 28.5zm2 386h-113l-89 142h123z"/><glyph glyph-name="aacute" unicode="á" horiz-adv-x="468" d="M421 0h-119v24q-12-12-43-22t-66-10q-71 0-118.5 39t-47.5 106q0 63 49.5 103t123.5 40q28 0 58-8t44-18v33q0 30-18.5 49.5t-54.5 19.5q-50 0-66-42h-118q10 62 61.5 102.5t126.5 40.5q89 0 138.5-45.5t49.5-126.5v-285zm-119 122v32q-8 18-30.5 28.5t-50.5 10.5q-32 0-55.5-14t-23.5-41 23-41 56-14q28 0 50.5 10.5t30.5 28.5zm-9 386h-112l79 142h123z"/><glyph glyph-name="acircumflex" unicode="â" horiz-adv-x="468" d="M292 647l95-145h-98l-49 69-49-69h-98l95 145h104zm129-647h-119v24q-12-12-43-22t-66-10q-71 0-118.5 39t-47.5 106q0 63 49.5 103t123.5 40q28 0 58-8t44-18v33q0 30-18.5 49.5t-54.5 19.5q-50 0-66-42h-118q10 62 61.5 102.5t126.5 40.5q89 0 138.5-45.5t49.5-126.5v-285zm-119 122v32q-8 18-30.5 28.5t-50.5 10.5q-32 0-55.5-14t-23.5-41 23-41 56-14q28 0 50.5 10.5t30.5 28.5z"/><glyph glyph-name="atilde" unicode="ã" horiz-adv-x="468" d="M421 0h-119v24q-12-12-43-22t-66-10q-71 0-118.5 39t-47.5 106q0 63 49.5 103t123.5 40q28 0 58-8t44-18v33q0 30-18.5 49.5t-54.5 19.5q-50 0-66-42h-118q10 62 61.5 102.5t126.5 40.5q89 0 138.5-45.5t49.5-126.5v-285zm-119 122v32q-8 18-30.5 28.5t-50.5 10.5q-32 0-55.5-14t-23.5-41 23-41 56-14q28 0 50.5 10.5t30.5 28.5zm11 521h71q0-63-21.5-101t-64.5-38q-24 0-55 23t-44 23q-28 0-30-42h-71q0 63 21.5 101t64.5 38q24 0 55-23t44-23q28 0 30 42z"/><glyph glyph-name="adieresis" unicode="ä" horiz-adv-x="468" d="M94 570q0 28 19.5 47.5t47.5 19.5q27 0 46.5-19.5t19.5-47.5q0-27-19.5-46.5t-46.5-19.5q-28 0-47.5 19.5t-19.5 46.5zm164 0q0 28 19.5 47.5t46.5 19.5 47-19.5 20-47.5q0-27-20-46.5t-47-19.5-46.5 19.5-19.5 46.5zm163-570h-119v24q-12-12-43-22t-66-10q-71 0-118.5 39t-47.5 106q0 63 49.5 103t123.5 40q28 0 58-8t44-18v33q0 30-18.5 49.5t-54.5 19.5q-50 0-66-42h-118q10 62 61.5 102.5t126.5 40.5q89 0 138.5-45.5t49.5-126.5v-285zm-119 122v32q-8 18-30.5 28.5t-50.5 10.5q-32 0-55.5-14t-23.5-41 23-41 56-14q28 0 50.5 10.5t30.5 28.5z"/><glyph glyph-name="aring" unicode="å" horiz-adv-x="468" d="M421 0h-119v24q-12-12-43-22t-66-10q-71 0-118.5 39t-47.5 106q0 63 49.5 103t123.5 40q28 0 58-8t44-18v33q0 30-18.5 49.5t-54.5 19.5q-50 0-66-42h-118q10 62 61.5 102.5t126.5 40.5q89 0 138.5-45.5t49.5-126.5v-285zm-119 122v32q-8 18-30.5 28.5t-50.5 10.5q-32 0-55.5-14t-23.5-41 23-41 56-14q28 0 50.5 10.5t30.5 28.5zm36 462q0-41-28.5-69t-70.5-28-70.5 28-28.5 69 28.5 69 70.5 28 70.5-28 28.5-69zm-59 0q0 16-11.5 28t-28.5 12q-16 0-27.5-11.5t-11.5-28.5q0-16 11-27.5t28-11.5 28.5 11.5 11.5 27.5z"/><glyph glyph-name="ae" unicode="æ" horiz-adv-x="731" d="M213 85q64 0 86 51v58h-80q-32 0-54.5-13.5t-22.5-40.5 21-41 50-14zm375 59h115q-12-71-64-112.5t-134-41.5q-95 0-155 62-61-61-157-61-70 0-118 38.5t-48 101.5q0 66 51.5 104t129.5 38h91v15q0 30-18.5 49.5t-54.5 19.5q-54 0-68-43h-113q10 62 60.5 102.5t123.5 40.5q94 0 140-59 59 59 135 59 95 0 148.5-61t53.5-161v-40h-297q3-50 29-77.5t68-27.5q67 0 82 54zm-84 212q-75 0-92-84h173q-2 37-23 60.5t-58 23.5z"/><glyph glyph-name="ccedilla" unicode="ç" horiz-adv-x="459" d="M26 223q0 104 60 169t155 65q82 0 134-44t62-117h-122q-5 26-24.5 40.5t-49.5 14.5q-42 0-67-35t-25-93q0-57 25-92t67-35q30 0 49.5 14.5t24.5 40.5h122q-10-73-61.5-117t-134.5-44q-95 0-155 65t-60 168zm205-409h-110l70 139h114z"/><glyph glyph-name="egrave" unicode="è" horiz-adv-x="469" d="M326 146h115q-12-73-63.5-114.5t-134.5-41.5q-97 0-157 64.5t-60 168.5q0 101 60.5 167.5t154.5 66.5q96 0 149.5-60.5t53.5-161.5v-38h-298q3-50 29-78.5t68-28.5q68 0 83 56zm-84 210q-76 0-93-84h173q-1 37-22 60.5t-58 23.5zm65 152h-113l-89 142h123z"/><glyph glyph-name="eacute" unicode="é" horiz-adv-x="469" d="M297 508h-112l79 142h123zm29-362h115q-12-73-63.5-114.5t-134.5-41.5q-97 0-157 64.5t-60 168.5q0 101 60.5 167.5t154.5 66.5q96 0 149.5-60.5t53.5-161.5v-38h-298q3-50 29-78.5t68-28.5q68 0 83 56zm-84 210q-76 0-93-84h173q-1 37-22 60.5t-58 23.5z"/><glyph glyph-name="ecircumflex" unicode="ê" horiz-adv-x="469" d="M297 647l95-145h-98l-49 69-49-69h-98l95 145h104zm29-501h115q-12-73-63.5-114.5t-134.5-41.5q-97 0-157 64.5t-60 168.5q0 101 60.5 167.5t154.5 66.5q96 0 149.5-60.5t53.5-161.5v-38h-298q3-50 29-78.5t68-28.5q68 0 83 56zm-84 210q-76 0-93-84h173q-1 37-22 60.5t-58 23.5z"/><glyph glyph-name="edieresis" unicode="ë" horiz-adv-x="469" d="M98 570q0 28 19.5 47.5t47.5 19.5q27 0 46.5-19.5t19.5-47.5q0-27-19.5-46.5t-46.5-19.5q-28 0-47.5 19.5t-19.5 46.5zm164 0q0 28 19.5 47.5t46.5 19.5 47-19.5 20-47.5q0-27-20-46.5t-47-19.5-46.5 19.5-19.5 46.5zm64-424h115q-12-73-63.5-114.5t-134.5-41.5q-97 0-157 64.5t-60 168.5q0 101 60.5 167.5t154.5 66.5q96 0 149.5-60.5t53.5-161.5v-38h-298q3-50 29-78.5t68-28.5q68 0 83 56zm-84 210q-76 0-93-84h173q-1 37-22 60.5t-58 23.5z"/><glyph glyph-name="igrave" unicode="ì" horiz-adv-x="232" d="M178 447v-447h-124v447h124zm-1 61h-113l-89 142h123z"/><glyph glyph-name="iacute" unicode="í" horiz-adv-x="232" d="M167 508h-112l79 142h123zm11-61v-447h-124v447h124z"/><glyph glyph-name="icircumflex" unicode="î" horiz-adv-x="232" d="M168 647l77-145h-95l-34 70-35-70h-95l78 145h104zm10-200v-447h-124v447h124z"/><glyph glyph-name="idieresis" unicode="ï" horiz-adv-x="232" d="M-27 570q0 28 19.5 47.5t47.5 19.5q27 0 46.5-19.5t19.5-47.5q0-27-19.5-46.5t-46.5-19.5q-28 0-47.5 19.5t-19.5 46.5zm154 0q0 28 19 47.5t47 19.5q27 0 46.5-19.5t19.5-47.5q0-27-19.5-46.5t-46.5-19.5q-28 0-47 19.5t-19 46.5zm51-123v-447h-124v447h124z"/><glyph glyph-name="eth" unicode="ð" horiz-adv-x="489" d="M137 483l-24 62 63 20q-57 47-106 81v4h157q26-18 61-49l85 28 24-62-56-18q123-140 123-315 0-111-60.5-177.5t-158.5-66.5q-97 0-158 64.5t-61 166.5 59 166 149 64q41 0 69-24h4q-17 33-73 87zm204-262q0 57-25.5 92t-70.5 35-70.5-35-25.5-92 25-91.5 71-34.5 71 34.5 25 91.5z"/><glyph glyph-name="ntilde" unicode="ñ" horiz-adv-x="505" d="M54 0v447h124v-41q44 51 120 51 75 0 116.5-45t41.5-120v-292h-124v266q0 36-18.5 57.5t-54.5 21.5q-29 0-51.5-16.5t-29.5-45.5v-283h-124zm275 643h71q0-63-21.5-101t-64.5-38q-24 0-55 23t-44 23q-28 0-30-42h-71q0 63 21.5 101t64.5 38q24 0 55-23t44-23q28 0 30 42z"/><glyph glyph-name="ograve" unicode="ò" horiz-adv-x="489" d="M464 223q0-103-61-168t-158-65-158 65-61 168q0 104 61 169t158 65 158-65 61-169zm-123 0q0 58-25.5 93.5t-70.5 35.5-70.5-35.5-25.5-93.5q0-57 25.5-92.5t70.5-35.5 70.5 35.5 25.5 92.5zm-35 285h-113l-89 142h123z"/><glyph glyph-name="oacute" unicode="ó" horiz-adv-x="489" d="M295 508h-112l79 142h123zm169-285q0-103-61-168t-158-65-158 65-61 168q0 104 61 169t158 65 158-65 61-169zm-123 0q0 58-25.5 93.5t-70.5 35.5-70.5-35.5-25.5-93.5q0-57 25.5-92.5t70.5-35.5 70.5 35.5 25.5 92.5z"/><glyph glyph-name="ocircumflex" unicode="ô" horiz-adv-x="489" d="M297 647l95-145h-98l-49 69-49-69h-98l95 145h104zm167-424q0-103-61-168t-158-65-158 65-61 168q0 104 61 169t158 65 158-65 61-169zm-123 0q0 58-25.5 93.5t-70.5 35.5-70.5-35.5-25.5-93.5q0-57 25.5-92.5t70.5-35.5 70.5 35.5 25.5 92.5z"/><glyph glyph-name="otilde" unicode="õ" horiz-adv-x="489" d="M464 223q0-103-61-168t-158-65-158 65-61 168q0 104 61 169t158 65 158-65 61-169zm-123 0q0 58-25.5 93.5t-70.5 35.5-70.5-35.5-25.5-93.5q0-57 25.5-92.5t70.5-35.5 70.5 35.5 25.5 92.5zm-24 420h71q0-63-21.5-101t-64.5-38q-24 0-55 23t-44 23q-28 0-30-42h-71q0 63 21.5 101t64.5 38q24 0 55-23t44-23q28 0 30 42z"/><glyph glyph-name="odieresis" unicode="ö" horiz-adv-x="489" d="M97 570q0 28 19.5 47.5t47.5 19.5q27 0 46.5-19.5t19.5-47.5q0-27-19.5-46.5t-46.5-19.5q-28 0-47.5 19.5t-19.5 46.5zm164 0q0 28 19.5 47.5t46.5 19.5 47-19.5 20-47.5q0-27-20-46.5t-47-19.5-46.5 19.5-19.5 46.5zm203-347q0-103-61-168t-158-65-158 65-61 168q0 104 61 169t158 65 158-65 61-169zm-123 0q0 58-25.5 93.5t-70.5 35.5-70.5-35.5-25.5-93.5q0-57 25.5-92.5t70.5-35.5 70.5 35.5 25.5 92.5z"/><glyph glyph-name="divide" unicode="÷" horiz-adv-x="560" d="M64 251v96h432v-96h-432zm146 221q0 29 20.5 50t49.5 21 50.5-21 21.5-50-21.5-49.5-50.5-20.5-49.5 20.5-20.5 49.5zm0-346q0 29 20.5 49.5t49.5 20.5 50.5-20.5 21.5-49.5-21.5-50-50.5-21-49.5 21-20.5 50z"/><glyph glyph-name="oslash" unicode="ø" horiz-adv-x="499" d="M34 9l47 58q-50 63-50 156 0 104 61 169t158 65q69 0 123-35l41 50 48-36-45-55q52-63 52-158 0-103-61-168t-158-65q-72 0-124 35l-43-53zm314 214q0 31-10 61l-142-174q22-17 54-17 45 0 71.5 36.5t26.5 93.5zm-196 0q0-33 9-59l142 172q-23 17-53 17-46 0-72-36t-26-94z"/><glyph glyph-name="ugrave" unicode="ù" horiz-adv-x="503" d="M450 447v-447h-124v41q-46-51-120-51t-115.5 45-41.5 120v292h124v-267q0-37 18-58t54-21q29 0 51 16.5t29 45.5v284h125zm-137 61h-113l-89 142h123z"/><glyph glyph-name="uacute" unicode="ú" horiz-adv-x="503" d="M303 508h-112l79 142h123zm147-61v-447h-124v41q-46-51-120-51t-115.5 45-41.5 120v292h124v-267q0-37 18-58t54-21q29 0 51 16.5t29 45.5v284h125z"/><glyph glyph-name="ucircumflex" unicode="û" horiz-adv-x="503" d="M304 647l95-145h-98l-49 69-49-69h-98l95 145h104zm146-200v-447h-124v41q-46-51-120-51t-115.5 45-41.5 120v292h124v-267q0-37 18-58t54-21q29 0 51 16.5t29 45.5v284h125z"/><glyph glyph-name="udieresis" unicode="ü" horiz-adv-x="503" d="M104 570q0 28 19.5 47.5t47.5 19.5q27 0 46.5-19.5t19.5-47.5q0-27-19.5-46.5t-46.5-19.5q-28 0-47.5 19.5t-19.5 46.5zm164 0q0 28 19.5 47.5t46.5 19.5 47-19.5 20-47.5q0-27-20-46.5t-47-19.5-46.5 19.5-19.5 46.5zm182-123v-447h-124v41q-46-51-120-51t-115.5 45-41.5 120v292h124v-267q0-37 18-58t54-21q29 0 51 16.5t29 45.5v284h125z"/><glyph glyph-name="yacute" unicode="ý" horiz-adv-x="487" d="M241-165h-122l65 163-171 449h131l103-297 102 297h125zm56 673h-112l79 142h123z"/><glyph glyph-name="thorn" unicode="þ" horiz-adv-x="519" d="M178 37v-202h-124v815h124v-240q16 19 47 33t65 14q94 0 149-67.5t55-166.5-55-166-149-67q-34 0-65 14t-47 33zm0 260v-147q11-23 34-37.5t50-14.5q49 0 78 35t29 90-29 90.5-78 35.5q-27 0-49.5-14.5t-34.5-37.5z"/><glyph glyph-name="ydieresis" unicode="ÿ" horiz-adv-x="487" d="M241-165h-122l65 163-171 449h131l103-297 102 297h125zm-143 735q0 28 19.5 47.5t47.5 19.5q27 0 46.5-19.5t19.5-47.5q0-27-19.5-46.5t-46.5-19.5q-28 0-47.5 19.5t-19.5 46.5zm164 0q0 28 19.5 47.5t46.5 19.5 47-19.5 20-47.5q0-27-20-46.5t-47-19.5-46.5 19.5-19.5 46.5z"/><glyph glyph-name="Amacron" unicode="Ā" horiz-adv-x="627" d="M250 614h127l235-614h-130l-55 148h-230l-54-148h-128zm-58 55v91h243v-91h-243zm120-209l-75-204h150z"/><glyph glyph-name="amacron" unicode="ā" horiz-adv-x="468" d="M421 0h-119v24q-12-12-43-22t-66-10q-71 0-118.5 39t-47.5 106q0 63 49.5 103t123.5 40q28 0 58-8t44-18v33q0 30-18.5 49.5t-54.5 19.5q-50 0-66-42h-118q10 62 61.5 102.5t126.5 40.5q89 0 138.5-45.5t49.5-126.5v-285zm-119 122v32q-8 18-30.5 28.5t-50.5 10.5q-32 0-55.5-14t-23.5-41 23-41 56-14q28 0 50.5 10.5t30.5 28.5zm-179 394v91h237v-91h-237z"/><glyph glyph-name="Abreve" unicode="Ă" horiz-adv-x="627" d="M250 614h127l235-614h-130l-55 148h-230l-54-148h-128zm63 49q-61 0-97.5 35t-36.5 99h88q0-48 46-48 47 0 47 48h88q0-64-36.5-99t-98.5-35zm-1-203l-75-204h150z"/><glyph glyph-name="abreve" unicode="ă" horiz-adv-x="468" d="M421 0h-119v24q-12-12-43-22t-66-10q-71 0-118.5 39t-47.5 106q0 63 49.5 103t123.5 40q28 0 58-8t44-18v33q0 30-18.5 49.5t-54.5 19.5q-50 0-66-42h-118q10 62 61.5 102.5t126.5 40.5q89 0 138.5-45.5t49.5-126.5v-285zm-119 122v32q-8 18-30.5 28.5t-50.5 10.5q-32 0-55.5-14t-23.5-41 23-41 56-14q28 0 50.5 10.5t30.5 28.5zm-63 370q-61 0-97 37t-36 105h88q0-58 45-58t45 58h88q0-68-36-105t-97-37z"/><glyph glyph-name="Aogonek" unicode="Ą" horiz-adv-x="627" d="M250 614h127l235-614q-5-7-12-16.5t-10-14.5-8-11.5-7-10-5-8-4-7.5-2-6.5-1.5-6.5-.5-7q0-21 20-21 14 0 37 16v-74q-30-21-62-21-39 0-60.5 20.5t-21.5 54.5q0 19 8.5 40t17.5 34 28 39h-47l-55 148h-230l-54-148h-128zm62-154l-75-204h150z"/><glyph glyph-name="aogonek" unicode="ą" horiz-adv-x="468" d="M301 122v32q-7 18-29.5 28.5t-50.5 10.5q-32 0-55.5-14t-23.5-41 23-41 56-14q28 0 50.5 10.5t29.5 28.5zm37-122h-37v24q-12-12-42.5-22t-65.5-10q-71 0-118.5 39t-47.5 106q0 63 49.5 103t123.5 40q65 0 101-26v33q0 30-18 49.5t-54 19.5q-52 0-67-42h-117q10 62 61.5 102.5t126.5 40.5q89 0 138.5-45.5t49.5-126.5v-285q-44-61-48-74-2-7-2-14 0-21 20-21 13 0 36 16v-74q-28-21-61-21-39 0-61 20.5t-22 54.5q0 19 9 40.5t17.5 33 28.5 39.5z"/><glyph glyph-name="Cacute" unicode="Ć" horiz-adv-x="599" d="M29 307q0 140 81 228.5t205 88.5q106 0 172.5-56.5t84.5-151.5h-127q-35 94-130 94-72 0-114-56.5t-42-146.5q0-89 42-146t114-57q95 0 130 95h127q-18-96-84.5-152.5t-172.5-56.5q-124 0-205 88.5t-81 228.5zm349 362h-122l80 122h135z"/><glyph glyph-name="cacute" unicode="ć" horiz-adv-x="459" d="M295 508h-112l79 142h123zm-269-285q0 104 60 169t155 65q82 0 134-44t62-117h-122q-5 26-24.5 40.5t-49.5 14.5q-42 0-67-35t-25-93q0-57 25-92t67-35q30 0 49.5 14.5t24.5 40.5h122q-10-73-61.5-117t-134.5-44q-95 0-155 65t-60 168z"/><glyph glyph-name="Ccircumflex" unicode="Ĉ" horiz-adv-x="599" d="M29 307q0 140 81 228.5t205 88.5q106 0 172.5-56.5t84.5-151.5h-127q-35 94-130 94-72 0-114-56.5t-42-146.5q0-89 42-146t114-57q95 0 130 95h127q-18-96-84.5-152.5t-172.5-56.5q-124 0-205 88.5t-81 228.5zm346 489l100-127h-105l-47 54-47-54h-105l100 127h104z"/><glyph glyph-name="ccircumflex" unicode="ĉ" horiz-adv-x="459" d="M297 647l95-145h-98l-49 69-49-69h-98l95 145h104zm-271-424q0 104 60 169t155 65q82 0 134-44t62-117h-122q-5 26-24.5 40.5t-49.5 14.5q-42 0-67-35t-25-93q0-57 25-92t67-35q30 0 49.5 14.5t24.5 40.5h122q-10-73-61.5-117t-134.5-44q-95 0-155 65t-60 168z"/><glyph glyph-name="Cdotaccent" unicode="Ċ" horiz-adv-x="599" d="M393 734q0-30-22-50.5t-52-20.5-52 20.5-22 50.5q0 31 22 51t52 20 52-20 22-51zm-364-427q0 140 81 228.5t205 88.5q106 0 172.5-56.5t84.5-151.5h-127q-35 94-130 94-72 0-114-56.5t-42-146.5q0-89 42-146t114-57q95 0 130 95h127q-18-96-84.5-152.5t-172.5-56.5q-124 0-205 88.5t-81 228.5z"/><glyph glyph-name="cdotaccent" unicode="ċ" horiz-adv-x="459" d="M26 223q0 104 60 169t155 65q82 0 134-44t62-117h-122q-5 26-24.5 40.5t-49.5 14.5q-42 0-67-35t-25-93q0-57 25-92t67-35q30 0 49.5 14.5t24.5 40.5h122q-10-73-61.5-117t-134.5-44q-95 0-155 65t-60 168zm293 356q0-31-22-51t-52-20-52 20-22 51q0 30 22 50.5t52 20.5 52-20.5 22-50.5z"/><glyph glyph-name="Ccaron" unicode="Č" horiz-adv-x="599" d="M267 668l-100 127h105l47-54 47 54h105l-100-127h-104zm-238-361q0 140 81 228.5t205 88.5q106 0 172.5-56.5t84.5-151.5h-127q-35 94-130 94-72 0-114-56.5t-42-146.5q0-89 42-146t114-57q95 0 130 95h127q-18-96-84.5-152.5t-172.5-56.5q-124 0-205 88.5t-81 228.5z"/><glyph glyph-name="ccaron" unicode="č" horiz-adv-x="459" d="M392 647l-95-145h-104l-95 145h98l49-69 49 69h98zm-366-424q0 104 60 169t155 65q82 0 134-44t62-117h-122q-5 26-24.5 40.5t-49.5 14.5q-42 0-67-35t-25-93q0-57 25-92t67-35q30 0 49.5 14.5t24.5 40.5h122q-10-73-61.5-117t-134.5-44q-95 0-155 65t-60 168z"/><glyph glyph-name="Dcaron" unicode="Ď" horiz-adv-x="609" d="M226 668l-100 127h105l47-54 47 54h105l-100-127h-104zm-40-555h85q87 0 134 52t47 142q0 91-47 143t-134 52h-85v-389zm-127-113v614h217q139 0 221-83t82-224-82-224-221-83h-217z"/><glyph glyph-name="dcaron" unicode="ď" horiz-adv-x="519" d="M604 483h-97l38 167h97zm-263-483v37q-16-19-47-33t-65-14q-94 0-148.5 66.5t-54.5 166.5 54.5 167 148.5 67q34 0 65-14t47-33v240h125v-650h-125zm0 150v147q-11 23-34 37.5t-50 14.5q-49 0-78-35.5t-29-90.5 29-90 78-35q28 0 50.5 14.5t33.5 37.5z"/><glyph glyph-name="Dcroat" unicode="Đ" horiz-adv-x="626" d="M25 264v103h51v247h217q139 0 221-83t82-224-82-224-221-83h-217v264h-51zm178-151h85q87 0 134 52t47 142q0 91-47 143t-134 52h-85v-135h103v-103h-103v-151z"/><glyph glyph-name="dcroat" unicode="đ" horiz-adv-x="519" d="M248 497v84h93v69h125v-69h54v-84h-54v-497h-125v37q-16-19-47-33t-65-14q-94 0-148.5 66.5t-54.5 166.5 54.5 167 148.5 67q34 0 65-14t47-33v87h-93zm93-347v147q-11 23-34 37.5t-50 14.5q-49 0-78-35.5t-29-90.5 29-90 78-35q28 0 50.5 14.5t33.5 37.5z"/><glyph glyph-name="Emacron" unicode="Ē" horiz-adv-x="516" d="M150 669v91h243v-91h-243zm-91-55h417v-112h-291v-134h264v-109h-264v-146h291v-113h-417v614z"/><glyph glyph-name="emacron" unicode="ē" horiz-adv-x="469" d="M128 516v91h237v-91h-237zm198-370h115q-12-73-63.5-114.5t-134.5-41.5q-97 0-157 64.5t-60 168.5q0 101 60.5 167.5t154.5 66.5q96 0 149.5-60.5t53.5-161.5v-38h-298q3-50 29-78.5t68-28.5q68 0 83 56zm-84 210q-76 0-93-84h173q-1 37-22 60.5t-58 23.5z"/><glyph glyph-name="Ebreve" unicode="Ĕ" horiz-adv-x="516" d="M271 663q-61 0-97.5 35t-36.5 99h88q0-48 46-48 47 0 47 48h88q0-64-36.5-99t-98.5-35zm-212-49h417v-112h-291v-134h264v-109h-264v-146h291v-113h-417v614z"/><glyph glyph-name="ebreve" unicode="ĕ" horiz-adv-x="469" d="M326 146h115q-12-73-63.5-114.5t-134.5-41.5q-97 0-157 64.5t-60 168.5q0 101 60.5 167.5t154.5 66.5q96 0 149.5-60.5t53.5-161.5v-38h-298q3-50 29-78.5t68-28.5q68 0 83 56zm-84 210q-76 0-93-84h173q-1 37-22 60.5t-58 23.5zm4 136q-61 0-97 37t-36 105h88q0-58 45-58t45 58h88q0-68-36-105t-97-37z"/><glyph glyph-name="Edotaccent" unicode="Ė" horiz-adv-x="516" d="M345 734q0-30-22-50.5t-52-20.5-52 20.5-22 50.5q0 31 22 51t52 20 52-20 22-51zm-286-120h417v-112h-291v-134h264v-109h-264v-146h291v-113h-417v614z"/><glyph glyph-name="edotaccent" unicode="ė" horiz-adv-x="469" d="M326 146h115q-12-73-63.5-114.5t-134.5-41.5q-97 0-157 64.5t-60 168.5q0 101 60.5 167.5t154.5 66.5q96 0 149.5-60.5t53.5-161.5v-38h-298q3-50 29-78.5t68-28.5q68 0 83 56zm-84 210q-76 0-93-84h173q-1 37-22 60.5t-58 23.5zm78 223q0-31-22-51t-52-20-52 20-22 51q0 30 22 50.5t52 20.5 52-20.5 22-50.5z"/><glyph glyph-name="Eogonek" unicode="Ę" horiz-adv-x="516" d="M59 614h417v-112h-291v-134h264v-109h-264v-146h291v-113h-34q-4-5-10-14-25-35-32.5-48t-7.5-26q0-21 21-21 13 0 36 16v-74q-30-21-62-21-39 0-60.5 20.5t-21.5 54.5q0 19 8.5 40t18 34.5 28.5 38.5h-301v614z"/><glyph glyph-name="eogonek" unicode="ę" horiz-adv-x="469" d="M242 356q-76 0-93-84h173q-1 37-22 60.5t-58 23.5zm24-365q-3 0-11-.5t-12-.5q-97 0-157 64.5t-60 168.5q0 101 60.5 167.5t154.5 66.5q96 0 149.5-60.5t53.5-161.5v-38h-298q3-50 29-78.5t68-28.5q68 0 83 56h115q-10-65-63-117-73-67-73-115 0-23 22-23 13 0 36 16v-74q-30-21-62-21-39 0-61.5 21t-22.5 56q0 45 49 102z"/><glyph glyph-name="Ecaron" unicode="Ě" horiz-adv-x="516" d="M224 668l-100 127h105l47-54 47 54h105l-100-127h-104zm-165-54h417v-112h-291v-134h264v-109h-264v-146h291v-113h-417v614z"/><glyph glyph-name="ecaron" unicode="ě" horiz-adv-x="469" d="M393 647l-95-145h-104l-95 145h98l49-69 49 69h98zm-67-501h115q-12-73-63.5-114.5t-134.5-41.5q-97 0-157 64.5t-60 168.5q0 101 60.5 167.5t154.5 66.5q96 0 149.5-60.5t53.5-161.5v-38h-298q3-50 29-78.5t68-28.5q68 0 83 56zm-84 210q-76 0-93-84h173q-1 37-22 60.5t-58 23.5z"/><glyph glyph-name="Gcircumflex" unicode="Ĝ" horiz-adv-x="621" d="M374 796l100-127h-105l-47 54-47-54h-105l100 127h104zm93-576h-117v102h242v-54q0-126-74.5-202t-192.5-76q-129 0-212.5 88.5t-83.5 228.5 83.5 228.5 209.5 88.5q108 0 175-56.5t85-151.5h-129q-36 94-131 94-75 0-119-56.5t-44-146.5q0-91 45-147.5t121-56.5q58 0 94.5 31.5t47.5 85.5z"/><glyph glyph-name="gcircumflex" unicode="ĝ" horiz-adv-x="516" d="M325 647l95-145h-98l-49 69-49-69h-98l95 145h104zm14-617v26q-38-46-110-46-93 0-148 65t-55 159q0 93 55 158t148 65q71 0 110-45v35h123v-398q0-111-60-167.5t-159-56.5q-87 0-142.5 42t-65.5 117h120q15-63 88-63 96 0 96 109zm0 131v146q-28 46-84 46-49 0-77-33t-28-86 28-86.5 77-33.5q27 0 49.5 13.5t34.5 33.5z"/><glyph glyph-name="Gbreve" unicode="Ğ" horiz-adv-x="621" d="M323 663q-61 0-97.5 35t-36.5 99h88q0-48 46-48 47 0 47 48h88q0-64-36.5-99t-98.5-35zm144-443h-117v102h242v-54q0-126-74.5-202t-192.5-76q-129 0-212.5 88.5t-83.5 228.5 83.5 228.5 209.5 88.5q108 0 175-56.5t85-151.5h-129q-36 94-131 94-75 0-119-56.5t-44-146.5q0-91 45-147.5t121-56.5q58 0 94.5 31.5t47.5 85.5z"/><glyph glyph-name="gbreve" unicode="ğ" horiz-adv-x="516" d="M339 30v26q-38-46-110-46-93 0-148 65t-55 159q0 93 55 158t148 65q71 0 110-45v35h123v-398q0-111-60-167.5t-159-56.5q-87 0-142.5 42t-65.5 117h120q15-63 88-63 96 0 96 109zm0 131v146q-28 46-84 46-49 0-77-33t-28-86 28-86.5 77-33.5q27 0 49.5 13.5t34.5 33.5zm-66 331q-61 0-97 37t-36 105h88q0-58 45-58t45 58h88q0-68-36-105t-97-37z"/><glyph glyph-name="Gdotaccent" unicode="Ġ" horiz-adv-x="621" d="M398 734q0-30-22-50.5t-52-20.5-52 20.5-22 50.5q0 31 22 51t52 20 52-20 22-51zm69-514h-117v102h242v-54q0-126-74.5-202t-192.5-76q-129 0-212.5 88.5t-83.5 228.5 83.5 228.5 209.5 88.5q108 0 175-56.5t85-151.5h-129q-36 94-131 94-75 0-119-56.5t-44-146.5q0-91 45-147.5t121-56.5q58 0 94.5 31.5t47.5 85.5z"/><glyph glyph-name="gdotaccent" unicode="ġ" horiz-adv-x="516" d="M347 579q0-31-22-51t-52-20-52 20-22 51q0 30 22 50.5t52 20.5 52-20.5 22-50.5zm-8-549v26q-38-46-110-46-93 0-148 65t-55 159q0 93 55 158t148 65q71 0 110-45v35h123v-398q0-111-60-167.5t-159-56.5q-87 0-142.5 42t-65.5 117h120q15-63 88-63 96 0 96 109zm0 131v146q-28 46-84 46-49 0-77-33t-28-86 28-86.5 77-33.5q27 0 49.5 13.5t34.5 33.5z"/><glyph glyph-name="Gcommaaccent" unicode="Ģ" horiz-adv-x="621" d="M255-225l46 62q-22 4-36 20t-14 40q0 28 20.5 46t50.5 18q29 0 49-19t20-50q0-34-33-78l-27-39h-76zm212 445h-117v102h242v-54q0-126-74.5-202t-192.5-76q-129 0-212.5 88.5t-83.5 228.5 83.5 228.5 209.5 88.5q108 0 175-56.5t85-151.5h-129q-36 94-131 94-75 0-119-56.5t-44-146.5q0-91 45-147.5t121-56.5q58 0 94.5 31.5t47.5 85.5z"/><glyph glyph-name="gcommaaccent" unicode="ģ" horiz-adv-x="516" d="M339 696l-47-64q22-5 36.5-21.5t14.5-40.5q0-28-21-46.5t-51-18.5-50.5 19-20.5 51q0 36 33 80l30 41h76zm0-666v26q-38-46-110-46-93 0-148 65t-55 159q0 93 55 158t148 65q71 0 110-45v35h123v-398q0-111-60-167.5t-159-56.5q-87 0-142.5 42t-65.5 117h120q15-63 88-63 96 0 96 109zm0 131v146q-28 46-84 46-49 0-77-33t-28-86 28-86.5 77-33.5q27 0 49.5 13.5t34.5 33.5z"/><glyph glyph-name="Hcircumflex" unicode="Ĥ" horiz-adv-x="652" d="M465 614h128v-614h-128v258h-278v-258h-128v614h128v-244h278v244zm-88 182l100-127h-105l-47 54-47-54h-105l100 127h104z"/><glyph glyph-name="hcircumflex" unicode="ĥ" horiz-adv-x="505" d="M54 0v650h124v-244q44 51 120 51 75 0 116.5-45t41.5-120v-292h-124v266q0 36-18.5 57.5t-54.5 21.5q-29 0-51.5-16.5t-29.5-45.5v-283h-124zm251 813l100-127h-105l-47 54-47-54h-105l100 127h104z"/><glyph glyph-name="Hbar" unicode="Ħ" horiz-adv-x="683" d="M25 418v102h49v94h128v-94h279v94h128v-94h49v-102h-49v-418h-128v216h-279v-216h-128v418h-49zm177-100h279v100h-279v-100z"/><glyph glyph-name="hbar" unicode="ħ" horiz-adv-x="505" d="M-1 497v84h55v69h124v-69h93v-84h-93v-91q44 51 120 51 75 0 116.5-45t41.5-120v-292h-124v266q0 36-18.5 57.5t-54.5 21.5q-29 0-51.5-16.5t-29.5-45.5v-283h-124v497h-55z"/><glyph glyph-name="Itilde" unicode="Ĩ" horiz-adv-x="245" d="M187 614v-614h-128v614h128zm14 188h71q0-63-21-101t-64-38q-26 0-61.5 21t-51.5 21q-28 0-29-39h-71q0 63 21 101t64 38q26 0 61.5-21t51.5-21q28 0 29 39z"/><glyph glyph-name="itilde" unicode="ĩ" horiz-adv-x="232" d="M172 643h68q0-63-19-101t-56-38q-21 0-46.5 21.5t-35.5 21.5q-23 0-25-39h-67q0 62 18.5 100.5t55.5 38.5q21 0 46.5-21.5t35.5-21.5q23 0 25 39zm6-196v-447h-124v447h124z"/><glyph glyph-name="Imacron" unicode="Ī" horiz-adv-x="245" d="M187 614v-614h-128v614h128zm-185 55v91h243v-91h-243z"/><glyph glyph-name="imacron" unicode="ī" horiz-adv-x="232" d="M178 447v-447h-124v447h124zm-167 69v91h209v-91h-209z"/><glyph glyph-name="Ibreve" unicode="Ĭ" horiz-adv-x="245" d="M187 614v-614h-128v614h128zm-65 49q-61 0-97.5 35t-36.5 99h88q0-48 46-48 47 0 47 48h88q0-64-36.5-99t-98.5-35z"/><glyph glyph-name="ibreve" unicode="ĭ" horiz-adv-x="232" d="M116 492q-54 0-86.5 37t-32.5 105h83q0-58 36-58t36 58h83q0-68-32.5-105t-86.5-37zm62-45v-447h-124v447h124z"/><glyph glyph-name="Iogonek" unicode="Į" horiz-adv-x="245" d="M187 614v-614q-5-7-12-16.5t-10-14.5-8-11.5-7-10-5-8-4-7.5-2-6.5-1.5-6.5-.5-7q0-21 20-21 13 0 36 16v-74q-28-21-61-21-39 0-61 20.5t-22 54.5q0 19 9 40.5t17.5 33 28.5 39.5h-45v614h128z"/><glyph glyph-name="iogonek" unicode="į" horiz-adv-x="232" d="M178 447v-447q-5-7-12-16.5t-10-14.5-8-11.5-7-10-5-8-4-7.5-2-6.5-1.5-6.5-.5-7q0-21 20-21 14 0 37 16v-74q-30-21-62-21-39 0-60.5 20.5t-21.5 54.5q0 19 8.5 40t17.5 34 28 39h-41v447h124zm11 129q0-31-21.5-51t-51.5-20q-31 0-52.5 20t-21.5 51q0 30 22 50.5t52 20.5 51.5-20.5 21.5-50.5z"/><glyph glyph-name="Idotaccent" unicode="İ" horiz-adv-x="245" d="M187 614v-614h-128v614h128zm10 120q0-30-22-50.5t-52-20.5-52 20.5-22 50.5q0 31 22 51t52 20 52-20 22-51z"/><glyph glyph-name="dotlessi" unicode="ı" horiz-adv-x="232" d="M178 447v-447h-124v447h124z"/><glyph glyph-name="IJ" unicode="Ĳ" horiz-adv-x="717" d="M223 195h132q8-89 90-89 95 0 95 117v391h128v-392q0-114-59.5-173t-161.5-59-160 56-64 149zm-36 419v-614h-128v614h128z"/><glyph glyph-name="ij" unicode="ĳ" horiz-adv-x="462" d="M178 447v-447h-124v447h124zm11 129q0-31-21.5-51t-51.5-20q-31 0-52.5 20t-21.5 51q0 30 22 50.5t52 20.5 51.5-20.5 21.5-50.5zm221-129v-465q0-75-40-116t-116-41q-33 0-48 5v99q21-3 27-3 53 0 53 57v464h124zm11 129q0-31-21.5-51t-51.5-20q-31 0-52.5 20t-21.5 51q0 30 22 50.5t52 20.5 51.5-20.5 21.5-50.5z"/><glyph glyph-name="Jcircumflex" unicode="Ĵ" horiz-adv-x="509" d="M15 195h132q8-89 90-89 95 0 95 117v391h128v-392q0-114-60-173t-162-59q-101 0-159 56t-64 149zm434 601l100-127h-105l-47 54-47-54h-105l100 127h104z"/><glyph glyph-name="jcircumflex" unicode="ĵ" horiz-adv-x="230" d="M168 647l77-145h-95l-34 70-35-70h-95l78 145h104zm10-200v-465q0-75-40-116t-116-41q-33 0-48 5v99q21-3 27-3 53 0 53 57v464h124z"/><glyph glyph-name="Kcommaaccent" unicode="Ķ" horiz-adv-x="593" d="M216-225l46 62q-22 4-36 20t-14 40q0 28 20.5 46t50.5 18q29 0 49-19t20-50q0-34-33-78l-27-39h-76zm-29 839v-276l231 276h155l-234-275 243-339h-155l-182 251-58-69v-182h-128v614h128z"/><glyph glyph-name="kcommaaccent" unicode="ķ" horiz-adv-x="499" d="M178-225l46 62q-22 4-36 20t-14 40q0 28 20.5 46t50.5 18q29 0 49-19t20-50q0-34-33-78l-27-39h-76zm167 225l-131 180-36-39v-141h-124v650h124v-369l153 166h154l-181-190 188-257h-147z"/><glyph glyph-name="kgreenlandic" unicode="ĸ" horiz-adv-x="499" d="M345 0l-131 180-36-39v-141h-124v447h124v-166l153 166h154l-181-190 188-257h-147z"/><glyph glyph-name="Lacute" unicode="Ĺ" horiz-adv-x="507" d="M188 669h-122l80 122h135zm-129-669v614h128v-501h286v-113h-414z"/><glyph glyph-name="lacute" unicode="ĺ" horiz-adv-x="232" d="M175 694h-122l80 122h135zm3-44v-650h-124v650h124z"/><glyph glyph-name="Lcommaaccent" unicode="Ļ" horiz-adv-x="507" d="M208-225l46 62q-22 4-36 20t-14 40q0 28 20.5 46t50.5 18q29 0 49-19t20-50q0-34-33-78l-27-39h-76zm-149 225v614h128v-501h286v-113h-414z"/><glyph glyph-name="lcommaaccent" unicode="ļ" horiz-adv-x="232" d="M49-225l46 62q-22 4-36 20t-14 40q0 28 20.5 46t50.5 18q29 0 49-19t20-50q0-34-33-78l-27-39h-76zm129 875v-650h-124v650h124z"/><glyph glyph-name="Lcaron" unicode="Ľ" horiz-adv-x="507" d="M360 447h-97l38 167h97zm-301-447v614h128v-501h286v-113h-414z"/><glyph glyph-name="lcaron" unicode="ľ" horiz-adv-x="232" d="M316 483h-97l38 167h97zm-138 167v-650h-124v650h124z"/><glyph glyph-name="Ldot" unicode="Ŀ" horiz-adv-x="507" d="M59 0v614h128v-501h286v-113h-414zm385 324q0-31-22-51t-52-20-52 20-22 51q0 30 22 50.5t52 20.5 52-20.5 22-50.5z"/><glyph glyph-name="ldot" unicode="ŀ" horiz-adv-x="390" d="M178 650v-650h-124v650h124zm206-322q0-31-22-51t-52-20-52 20-22 51q0 30 22 50.5t52 20.5 52-20.5 22-50.5z"/><glyph glyph-name="Lslash" unicode="Ł" horiz-adv-x="528" d="M22 201v108l58 24v281h128v-234l138 57v-108l-138-57v-159h286v-113h-414v225z"/><glyph glyph-name="lslash" unicode="ł" horiz-adv-x="274" d="M199 650v-225l54 31v-98l-54-32v-326h-124v267l-50-30v99l50 29v285h124z"/><glyph glyph-name="Nacute" unicode="Ń" horiz-adv-x="632" d="M371 669h-122l80 122h135zm202-55v-614h-101l-290 409v-409h-123v614h120l271-388v388h123z"/><glyph glyph-name="nacute" unicode="ń" horiz-adv-x="505" d="M312 508h-112l79 142h123zm-258-508v447h124v-41q44 51 120 51 75 0 116.5-45t41.5-120v-292h-124v266q0 36-18.5 57.5t-54.5 21.5q-29 0-51.5-16.5t-29.5-45.5v-283h-124z"/><glyph glyph-name="Ncommaaccent" unicode="Ņ" horiz-adv-x="632" d="M249-225l46 62q-22 4-36 20t-14 40q0 28 20.5 46t50.5 18q29 0 49-19t20-50q0-34-33-78l-27-39h-76zm324 839v-614h-101l-290 409v-409h-123v614h120l271-388v388h123z"/><glyph glyph-name="ncommaaccent" unicode="ņ" horiz-adv-x="505" d="M193-225l46 62q-22 4-36 20t-14 40q0 28 20.5 46t50.5 18q29 0 49-19t20-50q0-34-33-78l-27-39h-76zm-139 225v447h124v-41q44 51 120 51 75 0 116.5-45t41.5-120v-292h-124v266q0 36-18.5 57.5t-54.5 21.5q-29 0-51.5-16.5t-29.5-45.5v-283h-124z"/><glyph glyph-name="Ncaron" unicode="Ň" horiz-adv-x="632" d="M264 668l-100 127h105l47-54 47 54h105l-100-127h-104zm309-54v-614h-101l-290 409v-409h-123v614h120l271-388v388h123z"/><glyph glyph-name="ncaron" unicode="ň" horiz-adv-x="505" d="M408 647l-95-145h-104l-95 145h98l49-69 49 69h98zm-354-647v447h124v-41q44 51 120 51 75 0 116.5-45t41.5-120v-292h-124v266q0 36-18.5 57.5t-54.5 21.5q-29 0-51.5-16.5t-29.5-45.5v-283h-124z"/><glyph glyph-name="Eng" unicode="Ŋ" horiz-adv-x="632" d="M275-164v118q43-23 83-23 45 0 66 24t23 80l-265 374v-409h-123v614h120l271-388v388h123v-573q0-224-201-224-46 0-97 19z"/><glyph glyph-name="eng" unicode="ŋ" horiz-adv-x="505" d="M332-17v283q0 36-18.5 57.5t-54.5 21.5q-29 0-51.5-16.5t-29.5-45.5v-283h-124v447h124v-41q44 51 120 51 75 0 116.5-45t41.5-120v-310q0-75-40-116t-116-41q-32 0-47 5v99q18-3 27-3 52 0 52 57z"/><glyph glyph-name="Omacron" unicode="Ō" horiz-adv-x="640" d="M198 669v91h243v-91h-243zm412-362q0-138-81.5-227.5t-209.5-89.5-209 89.5-81 227.5q0 139 81 228t209 89 209.5-89.5 81.5-227.5zm-129 0q0 91-44.5 147t-117.5 56q-72 0-116-56t-44-147 44-147 116-56q73 0 117.5 56t44.5 147z"/><glyph glyph-name="omacron" unicode="ō" horiz-adv-x="489" d="M127 516v91h237v-91h-237zm337-293q0-103-61-168t-158-65-158 65-61 168q0 104 61 169t158 65 158-65 61-169zm-123 0q0 58-25.5 93.5t-70.5 35.5-70.5-35.5-25.5-93.5q0-57 25.5-92.5t70.5-35.5 70.5 35.5 25.5 92.5z"/><glyph glyph-name="Obreve" unicode="Ŏ" horiz-adv-x="640" d="M319 663q-61 0-97.5 35t-36.5 99h88q0-48 46-48 47 0 47 48h88q0-64-36.5-99t-98.5-35zm291-356q0-138-81.5-227.5t-209.5-89.5-209 89.5-81 227.5q0 139 81 228t209 89 209.5-89.5 81.5-227.5zm-129 0q0 91-44.5 147t-117.5 56q-72 0-116-56t-44-147 44-147 116-56q73 0 117.5 56t44.5 147z"/><glyph glyph-name="obreve" unicode="ŏ" horiz-adv-x="489" d="M464 223q0-103-61-168t-158-65-158 65-61 168q0 104 61 169t158 65 158-65 61-169zm-123 0q0 58-25.5 93.5t-70.5 35.5-70.5-35.5-25.5-93.5q0-57 25.5-92.5t70.5-35.5 70.5 35.5 25.5 92.5zm-96 269q-61 0-97 37t-36 105h88q0-58 45-58t45 58h88q0-68-36-105t-97-37z"/><glyph glyph-name="Ohungarumlaut" unicode="Ő" horiz-adv-x="640" d="M610 307q0-138-81.5-227.5t-209.5-89.5-209 89.5-81 227.5q0 139 81 228t209 89 209.5-89.5 81.5-227.5zm-129 0q0 91-44.5 147t-117.5 56q-72 0-116-56t-44-147 44-147 116-56q73 0 117.5 56t44.5 147zm-180 362h-102l66 122h105zm148 0h-103l67 122h104z"/><glyph glyph-name="ohungarumlaut" unicode="ő" horiz-adv-x="489" d="M219 508h-98l67 142h99zm141 0h-98l67 142h99zm104-285q0-103-61-168t-158-65-158 65-61 168q0 104 61 169t158 65 158-65 61-169zm-123 0q0 58-25.5 93.5t-70.5 35.5-70.5-35.5-25.5-93.5q0-57 25.5-92.5t70.5-35.5 70.5 35.5 25.5 92.5z"/><glyph glyph-name="OE" unicode="Œ" horiz-adv-x="832" d="M792 614v-112h-272v-134h245v-109h-245v-146h272v-113h-460q-139 0-221 83t-82 224 82 224 221 83h460zm-454-501h56v389h-56q-87 0-134-52t-47-143 47-142.5 134-51.5z"/><glyph glyph-name="oe" unicode="œ" horiz-adv-x="778" d="M553-10q-94 0-155 64-59-64-153-64-97 0-158 65t-61 168q0 104 61 169t158 65q93 0 153-65 62 65 153 65 96 0 149.5-60.5t53.5-161.5v-38h-298q3-50 29-78.5t68-28.5q68 0 83 56h115q-12-73-63.5-114.5t-134.5-41.5zm-212 233q0 58-25.5 93.5t-70.5 35.5-70.5-35.5-25.5-93.5q0-57 25.5-92.5t70.5-35.5 70.5 35.5 25.5 92.5zm211 133q-76 0-93-84h173q-2 37-22.5 60.5t-57.5 23.5z"/><glyph glyph-name="Racute" unicode="Ŕ" horiz-adv-x="563" d="M253 229h-67v-229h-127v614h253q99 0 157-51t58-144q0-72-37-118.5t-103-62.5l162-238h-144zm-67 276v-171h118q47 0 72 23t25 62q0 40-25 63t-72 23h-118zm149 164h-122l80 122h135z"/><glyph glyph-name="racute" unicode="ŕ" horiz-adv-x="351" d="M241 508h-112l79 142h123zm84-59v-124q-25 15-62 15-32 0-55-16.5t-30-46.5v-277h-124v447h124v-44q32 54 100 54 33 0 47-8z"/><glyph glyph-name="Rcommaaccent" unicode="Ŗ" horiz-adv-x="563" d="M253 229h-67v-229h-127v614h253q99 0 157-51t58-144q0-72-37-118.5t-103-62.5l162-238h-144zm-67 276v-171h118q47 0 72 23t25 62q0 40-25 63t-72 23h-118zm27-730l46 62q-22 4-36 20t-14 40q0 28 20.5 46t50.5 18q29 0 49-19t20-50q0-34-33-78l-27-39h-76z"/><glyph glyph-name="rcommaaccent" unicode="ŗ" horiz-adv-x="351" d="M47-225l46 62q-22 4-36 20t-14 40q0 28 20.5 46t50.5 18q29 0 49-19t20-50q0-34-33-78l-27-39h-76zm278 674v-124q-25 15-62 15-32 0-55-16.5t-30-46.5v-277h-124v447h124v-44q32 54 100 54 33 0 47-8z"/><glyph glyph-name="Rcaron" unicode="Ř" horiz-adv-x="563" d="M253 229h-67v-229h-127v614h253q99 0 157-51t58-144q0-72-37-118.5t-103-62.5l162-238h-144zm-67 276v-171h118q47 0 72 23t25 62q0 40-25 63t-72 23h-118zm42 163l-100 127h105l47-54 47 54h105l-100-127h-104z"/><glyph glyph-name="rcaron" unicode="ř" horiz-adv-x="351" d="M338 647l-95-145h-104l-95 145h98l49-69 49 69h98zm-13-198v-124q-25 15-62 15-32 0-55-16.5t-30-46.5v-277h-124v447h124v-44q32 54 100 54 33 0 47-8z"/><glyph glyph-name="Sacute" unicode="Ś" horiz-adv-x="530" d="M17 175h132q25-79 122-79 47 0 75 20.5t28 56.5q0 28-17.5 44t-57.5 25l-110 25q-156 35-156 168 0 83 62 136t159 53q102 0 163.5-48.5t77.5-129.5h-127q-25 73-113 73-44 0-70.5-19.5t-26.5-52.5q0-51 69-67l112-26q161-37 161-173 0-87-64-139t-164-52q-103 0-171 49t-84 136zm298 494h-122l80 122h135z"/><glyph glyph-name="sacute" unicode="ś" horiz-adv-x="437" d="M270 508h-112l79 142h123zm-245-375h123q15-49 75-49 63 0 63 44 0 15-10.5 23.5t-34.5 14.5l-90 20q-116 27-116 126 0 64 51 104.5t127 40.5q83 0 130.5-36.5t59.5-101.5h-118q-14 44-70 44-24 0-41.5-11t-17.5-31q0-25 40-35l92-21q119-29 119-130 0-67-51.5-106t-131.5-39q-83 0-136 37.5t-63 105.5z"/><glyph glyph-name="Scircumflex" unicode="Ŝ" horiz-adv-x="530" d="M17 175h132q25-79 122-79 47 0 75 20.5t28 56.5q0 28-17.5 44t-57.5 25l-110 25q-156 35-156 168 0 83 62 136t159 53q102 0 163.5-48.5t77.5-129.5h-127q-25 73-113 73-44 0-70.5-19.5t-26.5-52.5q0-51 69-67l112-26q161-37 161-173 0-87-64-139t-164-52q-103 0-171 49t-84 136zm300 621l100-127h-105l-47 54-47-54h-105l100 127h104z"/><glyph glyph-name="scircumflex" unicode="ŝ" horiz-adv-x="437" d="M271 647l95-145h-98l-49 69-49-69h-98l95 145h104zm-246-514h123q15-49 75-49 63 0 63 44 0 15-10.5 23.5t-34.5 14.5l-90 20q-116 27-116 126 0 64 51 104.5t127 40.5q83 0 130.5-36.5t59.5-101.5h-118q-14 44-70 44-24 0-41.5-11t-17.5-31q0-25 40-35l92-21q119-29 119-130 0-67-51.5-106t-131.5-39q-83 0-136 37.5t-63 105.5z"/><glyph glyph-name="Scedilla" unicode="Ş" horiz-adv-x="530" d="M17 175h132q25-79 122-79 47 0 75 20.5t28 56.5q0 28-17.5 44t-57.5 25l-110 25q-156 35-156 168 0 83 62 136t159 53q102 0 163.5-48.5t77.5-129.5h-127q-25 73-113 73-44 0-70.5-19.5t-26.5-52.5q0-51 69-67l112-26q161-37 161-173 0-87-64-139t-164-52q-103 0-171 49t-84 136zm231-361h-110l70 139h114z"/><glyph glyph-name="scedilla" unicode="ş" horiz-adv-x="437" d="M25 133h123q15-49 75-49 63 0 63 44 0 15-10.5 23.5t-34.5 14.5l-90 20q-116 27-116 126 0 64 51 104.5t127 40.5q83 0 130.5-36.5t59.5-101.5h-118q-14 44-70 44-24 0-41.5-11t-17.5-31q0-25 40-35l92-21q119-29 119-130 0-67-51.5-106t-131.5-39q-83 0-136 37.5t-63 105.5zm180-319h-110l70 139h114z"/><glyph glyph-name="Scaron" unicode="Š" horiz-adv-x="530" d="M213 668l-100 127h105l47-54 47 54h105l-100-127h-104zm-196-493h132q25-79 122-79 47 0 75 20.5t28 56.5q0 28-17.5 44t-57.5 25l-110 25q-156 35-156 168 0 83 62 136t159 53q102 0 163.5-48.5t77.5-129.5h-127q-25 73-113 73-44 0-70.5-19.5t-26.5-52.5q0-51 69-67l112-26q161-37 161-173 0-87-64-139t-164-52q-103 0-171 49t-84 136z"/><glyph glyph-name="scaron" unicode="š" horiz-adv-x="437" d="M366 647l-95-145h-104l-95 145h98l49-69 49 69h98zm-341-514h123q15-49 75-49 63 0 63 44 0 15-10.5 23.5t-34.5 14.5l-90 20q-116 27-116 126 0 64 51 104.5t127 40.5q83 0 130.5-36.5t59.5-101.5h-118q-14 44-70 44-24 0-41.5-11t-17.5-31q0-25 40-35l92-21q119-29 119-130 0-67-51.5-106t-131.5-39q-83 0-136 37.5t-63 105.5z"/><glyph glyph-name="Tcedilla" unicode="Ţ" horiz-adv-x="575" d="M221-225l46 62q-22 4-36 20t-14 40q0 28 20.5 46t50.5 18q29 0 49-19t20-50q0-34-33-78l-27-39h-76zm-195 727v112h524v-112h-198v-502h-129v502h-197z"/><glyph glyph-name="tcedilla" unicode="ţ" horiz-adv-x="345" d="M80 135v212h-67v100h67v121h124v-121h98v-100h-98v-194q0-52 51-52 28 0 54 15v-111q-26-14-80-14-70 0-109.5 36t-39.5 108zm53-360l46 62q-22 4-36 20t-14 40q0 28 20.5 46t50.5 18q29 0 49-19t20-50q0-34-33-78l-27-39h-76z"/><glyph glyph-name="Tcaron" unicode="Ť" horiz-adv-x="575" d="M236 668l-100 127h105l47-54 47 54h105l-100-127h-104zm-210-166v112h524v-112h-198v-502h-129v502h-197z"/><glyph glyph-name="tcaron" unicode="ť" horiz-adv-x="345" d="M80 135v212h-67v100h67v121h124v-121h98v-100h-98v-194q0-52 51-52 28 0 54 15v-111q-26-14-80-14-70 0-109.5 36t-39.5 108zm263 355h-97l38 167h97z"/><glyph glyph-name="Tbar" unicode="Ŧ" horiz-adv-x="575" d="M26 502v112h524v-112h-198v-140h102v-106h-102v-256h-129v256h-101v106h101v140h-197z"/><glyph glyph-name="tbar" unicode="ŧ" horiz-adv-x="349" d="M29 199v86h56v70h-68v92h68v121h124v-121h97v-92h-97v-70h77v-86h-77v-46q0-52 50-52 28 0 54 15v-111q-26-14-79-14-70 0-109.5 36t-39.5 108v64h-56z"/><glyph glyph-name="Utilde" unicode="Ũ" horiz-adv-x="610" d="M383 802h71q0-63-21-101t-64-38q-26 0-61.5 21t-51.5 21q-28 0-29-39h-71q0 63 21 101t64 38q26 0 61.5-21t51.5-21q28 0 29 39zm-78-812q-117 0-186 66.5t-69 190.5v367h128v-354q0-155 127-155t127 155v354h128v-367q0-124-68.5-190.5t-186.5-66.5z"/><glyph glyph-name="utilde" unicode="ũ" horiz-adv-x="503" d="M450 447v-447h-124v41q-46-51-120-51t-115.5 45-41.5 120v292h124v-267q0-37 18-58t54-21q29 0 51 16.5t29 45.5v284h125zm-126 196h71q0-63-21.5-101t-64.5-38q-24 0-55 23t-44 23q-28 0-30-42h-71q0 63 21.5 101t64.5 38q24 0 55-23t44-23q28 0 30 42z"/><glyph glyph-name="Umacron" unicode="Ū" horiz-adv-x="610" d="M184 669v91h243v-91h-243zm121-679q-117 0-186 66.5t-69 190.5v367h128v-354q0-155 127-155t127 155v354h128v-367q0-124-68.5-190.5t-186.5-66.5z"/><glyph glyph-name="umacron" unicode="ū" horiz-adv-x="503" d="M450 447v-447h-124v41q-46-51-120-51t-115.5 45-41.5 120v292h124v-267q0-37 18-58t54-21q29 0 51 16.5t29 45.5v284h125zm-316 69v91h237v-91h-237z"/><glyph glyph-name="Ubreve" unicode="Ŭ" horiz-adv-x="610" d="M305 663q-61 0-97.5 35t-36.5 99h88q0-48 46-48 47 0 47 48h88q0-64-36.5-99t-98.5-35zm0-673q-117 0-186 66.5t-69 190.5v367h128v-354q0-155 127-155t127 155v354h128v-367q0-124-68.5-190.5t-186.5-66.5z"/><glyph glyph-name="ubreve" unicode="ŭ" horiz-adv-x="503" d="M450 447v-447h-124v41q-46-51-120-51t-115.5 45-41.5 120v292h124v-267q0-37 18-58t54-21q29 0 51 16.5t29 45.5v284h125zm-198 45q-61 0-97 37t-36 105h88q0-58 45-58t45 58h88q0-68-36-105t-97-37z"/><glyph glyph-name="Uring" unicode="Ů" horiz-adv-x="610" d="M305-10q-117 0-186 66.5t-69 190.5v367h128v-354q0-155 127-155t127 155v354h128v-367q0-124-68.5-190.5t-186.5-66.5zm99 753q0-41-28.5-69t-70.5-28-70.5 28-28.5 69 28.5 69 70.5 28 70.5-28 28.5-69zm-59 0q0 17-11.5 28.5t-28.5 11.5q-16 0-27.5-11.5t-11.5-28.5 11-28 28-11 28.5 11.5 11.5 27.5z"/><glyph glyph-name="uring" unicode="ů" horiz-adv-x="503" d="M351 584q0-41-28.5-69t-70.5-28-70.5 28-28.5 69 28.5 69 70.5 28 70.5-28 28.5-69zm-59 0q0 16-12 28t-28 12-27.5-11.5-11.5-28.5q0-16 11.5-27.5t27.5-11.5q17 0 28.5 11.5t11.5 27.5zm158-137v-447h-124v41q-46-51-120-51t-115.5 45-41.5 120v292h124v-267q0-37 18-58t54-21q29 0 51 16.5t29 45.5v284h125z"/><glyph glyph-name="Uhungarumlaut" unicode="Ű" horiz-adv-x="610" d="M305-10q-117 0-186 66.5t-69 190.5v367h128v-354q0-155 127-155t127 155v354h128v-367q0-124-68.5-190.5t-186.5-66.5zm-18 679h-102l66 122h105zm148 0h-103l67 122h104z"/><glyph glyph-name="uhungarumlaut" unicode="ű" horiz-adv-x="503" d="M450 447v-447h-124v41q-46-51-120-51t-115.5 45-41.5 120v292h124v-267q0-37 18-58t54-21q29 0 51 16.5t29 45.5v284h125zm-224 61h-98l67 142h99zm141 0h-98l67 142h99z"/><glyph glyph-name="Uogonek" unicode="Ų" horiz-adv-x="610" d="M305-10q-117 0-186 66.5t-69 190.5v367h128v-354q0-155 127-155t127 155v354h128v-367q0-80-27.5-132.5t-83.5-91.5q-92-62-92-111 0-21 21-21 13 0 36 16v-74q-30-21-62-21-38 0-60 20.5t-22 54.5q0 50 51 103h-16z"/><glyph glyph-name="uogonek" unicode="ų" horiz-adv-x="503" d="M450 447v-447q-44-61-48-74-2-7-2-14 0-21 20-21 13 0 36 16v-74q-30-21-61-21-39 0-61 20.5t-22 54.5q0 19 9 40.5t17.5 33 28.5 39.5h-41v41q-46-51-120-51t-115.5 45-41.5 120v292h124v-267q0-37 18-58t54-21q29 0 51 16.5t29 45.5v284h125z"/><glyph glyph-name="Wcircumflex" unicode="Ŵ" horiz-adv-x="794" d="M349 614h100l106-413 101 413h126l-160-614h-117l-108 405-108-405h-117l-160 614h129l100-413zm100 182l100-127h-105l-47 54-47-54h-105l100 127h104z"/><glyph glyph-name="wcircumflex" unicode="ŵ" horiz-adv-x="672" d="M388 647l95-145h-98l-49 69-49-69h-98l95 145h104zm-3-200l74-285 80 285h120l-136-447h-114l-73 274-73-274h-114l-136 447h124l80-285 73 285h95z"/><glyph glyph-name="Ycircumflex" unicode="Ŷ" horiz-adv-x="593" d="M299 354l148 260h135l-223-381v-233h-127v233l-221 381h139zm49 442l100-127h-105l-47 54-47-54h-105l100 127h104z"/><glyph glyph-name="ycircumflex" unicode="ŷ" horiz-adv-x="487" d="M241-165h-122l65 163-171 449h131l103-297 102 297h125zm57 812l95-145h-98l-49 69-49-69h-98l95 145h104z"/><glyph glyph-name="Ydieresis" unicode="Ÿ" horiz-adv-x="593" d="M299 354l148 260h135l-223-381v-233h-127v233l-221 381h139zm-152 376q0 29 19 48.5t48 19.5q28 0 47.5-19.5t19.5-48.5q0-27-19.5-46.5t-47.5-19.5-47.5 19.5-19.5 46.5zm165 0q0 29 19.5 48.5t47.5 19.5 48-19.5 20-48.5q0-27-20-46.5t-48-19.5-47.5 19.5-19.5 46.5z"/><glyph glyph-name="Zacute" unicode="Ź" horiz-adv-x="554" d="M514 113v-113h-474v93l308 409h-303v112h465v-92l-306-409h310zm-165 556h-122l80 122h135z"/><glyph glyph-name="zacute" unicode="ź" horiz-adv-x="453" d="M287 508h-112l79 142h123zm125-408v-100h-374v80l215 267h-207v100h362v-80l-211-267h215z"/><glyph glyph-name="Zdotaccent" unicode="Ż" horiz-adv-x="554" d="M368 734q0-30-22-50.5t-52-20.5-52 20.5-22 50.5q0 31 22 51t52 20 52-20 22-51zm146-621v-113h-474v93l308 409h-303v112h465v-92l-306-409h310z"/><glyph glyph-name="zdotaccent" unicode="ż" horiz-adv-x="453" d="M412 100v-100h-374v80l215 267h-207v100h362v-80l-211-267h215zm-102 479q0-31-22-51t-52-20-52 20-22 51q0 30 22 50.5t52 20.5 52-20.5 22-50.5z"/><glyph glyph-name="Zcaron" unicode="Ž" horiz-adv-x="554" d="M242 668l-100 127h105l47-54 47 54h105l-100-127h-104zm272-555v-113h-474v93l308 409h-303v112h465v-92l-306-409h310z"/><glyph glyph-name="zcaron" unicode="ž" horiz-adv-x="453" d="M383 647l-95-145h-104l-95 145h98l49-69 49 69h98zm29-547v-100h-374v80l215 267h-207v100h362v-80l-211-267h215z"/><glyph glyph-name="florin" unicode="ƒ" horiz-adv-x="422" d="M60 253v100h83l20 112q14 77 59.5 118t119.5 41q37 0 68-12v-105q-22 12-54 12-58 0-70-62l-19-104h86v-100h-103l-47-267q-14-79-52-119t-113-40q-38 0-69 12v99q24-11 54-11 26 0 38 14.5t18 46.5l46 265h-65z"/><glyph glyph-name="Aringacute" unicode="Ǻ" horiz-adv-x="627" d="M250 614h127l235-614h-130l-55 148h-230l-54-148h-128zm160 99q0-34-28.5-57.5t-69.5-23.5q-42 0-70.5 23.5t-28.5 57.5 28.5 57.5 70.5 23.5q41 0 69.5-23.5t28.5-57.5zm-98-253l-75-204h150zm66 352h-121l57 94h135zm-27-99q0 14-11 22.5t-28 8.5-28.5-8.5-11.5-22.5q0-13 11.5-22t28.5-9 28 9 11 22z"/><glyph glyph-name="aringacute" unicode="ǻ" horiz-adv-x="468" d="M337 556q0-34-28.5-57.5t-69.5-23.5q-42 0-70.5 23.5t-28.5 57.5 28.5 57.5 70.5 23.5q41 0 69.5-23.5t28.5-57.5zm-59 0q0 13-11 22t-28 9-28.5-9-11.5-22q0-14 11-22.5t29-8.5q17 0 28 8.5t11 22.5zm27 99h-122l58 94h135zm116-655h-119v24q-12-12-43-22t-66-10q-71 0-118.5 39t-47.5 106q0 63 49.5 103t123.5 40q28 0 58-8t44-18v33q0 30-18.5 49.5t-54.5 19.5q-50 0-66-42h-118q10 62 61.5 102.5t126.5 40.5q89 0 138.5-45.5t49.5-126.5v-285zm-119 122v32q-8 18-30.5 28.5t-50.5 10.5q-32 0-55.5-14t-23.5-41 23-41 56-14q28 0 50.5 10.5t30.5 28.5z"/><glyph glyph-name="AEacute" unicode="Ǽ" horiz-adv-x="879" d="M365 614h474v-112h-272v-134h245v-109h-245v-146h272v-113h-398v148h-208l-84-148h-134zm76-102l-146-256h146v256zm200 157h-122l80 122h135z"/><glyph glyph-name="aeacute" unicode="ǽ" horiz-adv-x="731" d="M436 508h-112l79 142h123zm-223-423q64 0 86 51v58h-80q-32 0-54.5-13.5t-22.5-40.5 21-41 50-14zm375 59h115q-12-71-64-112.5t-134-41.5q-95 0-155 62-61-61-157-61-70 0-118 38.5t-48 101.5q0 66 51.5 104t129.5 38h91v15q0 30-18.5 49.5t-54.5 19.5q-54 0-68-43h-113q10 62 60.5 102.5t123.5 40.5q94 0 140-59 59 59 135 59 95 0 148.5-61t53.5-161v-40h-297q3-50 29-77.5t68-27.5q67 0 82 54zm-84 212q-75 0-92-84h173q-2 37-23 60.5t-58 23.5z"/><glyph glyph-name="Oslashacute" unicode="Ǿ" horiz-adv-x="649" d="M50 31l52 63q-68 87-68 213 0 139 81 228t209 89q97 0 171-55l48 58 58-44-54-65q68-87 68-211 0-138-81.5-227.5t-209.5-89.5q-97 0-169 53l-47-56zm113 276q0-67 21-113l236 284q-40 32-96 32-72 0-116.5-56.5t-44.5-146.5zm323 0q0 65-21 111l-235-284q39-30 94-30 73 0 117.5 56.5t44.5 146.5zm-107 362h-122l80 122h135z"/><glyph glyph-name="oslashacute" unicode="ǿ" horiz-adv-x="499" d="M34 9l47 58q-50 63-50 156 0 104 61 169t158 65q69 0 123-35l41 50 48-36-45-55q52-63 52-158 0-103-61-168t-158-65q-72 0-124 35l-43-53zm266 499h-112l79 142h123zm48-285q0 31-10 61l-142-174q22-17 54-17 45 0 71.5 36.5t26.5 93.5zm-196 0q0-33 9-59l142 172q-23 17-53 17-46 0-72-36t-26-94z"/><glyph glyph-name="Scommaaccent" unicode="Ș" horiz-adv-x="530" d="M194-225l46 62q-22 4-36 20t-14 40q0 28 20.5 46t50.5 18q29 0 49-19t20-50q0-34-33-78l-27-39h-76zm-177 400h132q25-79 122-79 47 0 75 20.5t28 56.5q0 28-17.5 44t-57.5 25l-110 25q-156 35-156 168 0 83 62 136t159 53q102 0 163.5-48.5t77.5-129.5h-127q-25 73-113 73-44 0-70.5-19.5t-26.5-52.5q0-51 69-67l112-26q161-37 161-173 0-87-64-139t-164-52q-103 0-171 49t-84 136z"/><glyph glyph-name="scommaaccent" unicode="ș" horiz-adv-x="437" d="M153-225l46 62q-22 4-36 20t-14 40q0 28 20.5 46t50.5 18q29 0 49-19t20-50q0-34-33-78l-27-39h-76zm-128 358h123q15-49 75-49 63 0 63 44 0 15-10.5 23.5t-34.5 14.5l-90 20q-116 27-116 126 0 64 51 104.5t127 40.5q83 0 130.5-36.5t59.5-101.5h-118q-14 44-70 44-24 0-41.5-11t-17.5-31q0-25 40-35l92-21q119-29 119-130 0-67-51.5-106t-131.5-39q-83 0-136 37.5t-63 105.5z"/><glyph glyph-name="uni0237" unicode="ȷ" horiz-adv-x="230" d="M178 447v-465q0-75-40-116t-116-41q-33 0-48 5v99q21-3 27-3 53 0 53 57v464h124z"/><glyph glyph-name="circumflex" unicode="ˆ" horiz-adv-x="500" d="M302 647l95-145h-98l-49 69-49-69h-98l95 145h104z"/><glyph glyph-name="caron" unicode="ˇ" horiz-adv-x="500" d="M397 647l-95-145h-104l-95 145h98l49-69 49 69h98z"/><glyph glyph-name="breve" unicode="˘" horiz-adv-x="500" d="M250 492q-61 0-97 37t-36 105h88q0-58 45-58t45 58h88q0-68-36-105t-97-37z"/><glyph glyph-name="dotaccent" unicode="˙" horiz-adv-x="500" d="M324 579q0-31-22-51t-52-20-52 20-22 51q0 30 22 50.5t52 20.5 52-20.5 22-50.5z"/><glyph glyph-name="ring" unicode="˚" horiz-adv-x="500" d="M349 584q0-41-28.5-69t-70.5-28-70.5 28-28.5 69 28.5 69 70.5 28 70.5-28 28.5-69zm-59 0q0 16-12 28t-28 12-27.5-11.5-11.5-28.5q0-16 11.5-27.5t27.5-11.5q17 0 28.5 11.5t11.5 27.5z"/><glyph glyph-name="ogonek" unicode="˛" horiz-adv-x="500" d="M233 6h81q-6-8-14-19.5t-11.5-16.5-9-13-7.5-12-5-9-4-8.5-2-7.5-1-8q0-21 21-21 13 0 36 16v-74q-30-21-62-21-39 0-60.5 20.5t-21.5 54.5q0 20 10 42.5t18.5 34.5 31.5 42z"/><glyph glyph-name="tilde" unicode="˜" horiz-adv-x="500" d="M322 643h71q0-63-21.5-101t-64.5-38q-24 0-55 23t-44 23q-28 0-30-42h-71q0 63 21.5 101t64.5 38q24 0 55-23t44-23q28 0 30 42z"/><glyph glyph-name="hungarumlaut" unicode="˝" horiz-adv-x="500" d="M194 508h-98l67 142h99zm141 0h-98l67 142h99z"/><glyph glyph-name="Wgrave" unicode="Ẁ" horiz-adv-x="794" d="M460 669h-122l-93 122h135zm-111-55h100l106-413 101 413h126l-160-614h-117l-108 405-108-405h-117l-160 614h129l100-413z"/><glyph glyph-name="wgrave" unicode="ẁ" horiz-adv-x="672" d="M385 447l74-285 80 285h120l-136-447h-114l-73 274-73-274h-114l-136 447h124l80-285 73 285h95zm12 61h-113l-89 142h123z"/><glyph glyph-name="Wacute" unicode="Ẃ" horiz-adv-x="794" d="M457 669h-122l80 122h135zm-108-55h100l106-413 101 413h126l-160-614h-117l-108 405-108-405h-117l-160 614h129l100-413z"/><glyph glyph-name="wacute" unicode="ẃ" horiz-adv-x="672" d="M386 508h-112l79 142h123zm-1-61l74-285 80 285h120l-136-447h-114l-73 274-73-274h-114l-136 447h124l80-285 73 285h95z"/><glyph glyph-name="Wdieresis" unicode="Ẅ" horiz-adv-x="794" d="M247 730q0 29 19 48.5t48 19.5q28 0 47.5-19.5t19.5-48.5q0-27-19.5-46.5t-47.5-19.5-47.5 19.5-19.5 46.5zm165 0q0 29 19.5 48.5t47.5 19.5 48-19.5 20-48.5q0-27-20-46.5t-48-19.5-47.5 19.5-19.5 46.5zm-63-116h100l106-413 101 413h126l-160-614h-117l-108 405-108-405h-117l-160 614h129l100-413z"/><glyph glyph-name="wdieresis" unicode="ẅ" horiz-adv-x="672" d="M188 570q0 28 19.5 47.5t47.5 19.5q27 0 46.5-19.5t19.5-47.5q0-27-19.5-46.5t-46.5-19.5q-28 0-47.5 19.5t-19.5 46.5zm164 0q0 28 19.5 47.5t46.5 19.5 47-19.5 20-47.5q0-27-20-46.5t-47-19.5-46.5 19.5-19.5 46.5zm33-123l74-285 80 285h120l-136-447h-114l-73 274-73-274h-114l-136 447h124l80-285 73 285h95z"/><glyph glyph-name="Ygrave" unicode="Ỳ" horiz-adv-x="593" d="M299 354l148 260h135l-223-381v-233h-127v233l-221 381h139zm63 315h-122l-93 122h135z"/><glyph glyph-name="ygrave" unicode="ỳ" horiz-adv-x="487" d="M241-165h-122l65 163-171 449h131l103-297 102 297h125zm66 673h-113l-89 142h123z"/><glyph glyph-name="endash" unicode="–" horiz-adv-x="471" d="M38 217v90h395v-90h-395z"/><glyph glyph-name="emdash" unicode="—" horiz-adv-x="842" d="M38 217v90h766v-90h-766z"/><glyph glyph-name="quoteleft" unicode="‘" horiz-adv-x="205" d="M188 614l-71-110q27-5 44-24t17-48q0-33-22.5-54.5t-55.5-21.5q-34 0-56.5 22.5t-22.5 62.5q0 41 33 90l55 83h79z"/><glyph glyph-name="quoteright" unicode="’" horiz-adv-x="205" d="M17 366l71 110q-27 5-44 24t-17 48q0 33 22.5 54.5t55.5 21.5q34 0 56.5-22.5t22.5-62.5q0-41-33-90l-55-83h-79z"/><glyph glyph-name="quotesinglbase" unicode="‚" horiz-adv-x="205" d="M17-110l71 110q-27 5-44 24t-17 48q0 33 22.5 54.5t55.5 21.5q34 0 56.5-22.5t22.5-62.5q0-41-33-90l-55-83h-79z"/><glyph glyph-name="quotedblleft" unicode="“" horiz-adv-x="400" d="M188 614l-71-110q27-5 44-24t17-48q0-33-22.5-54.5t-55.5-21.5q-34 0-56.5 22.5t-22.5 62.5q0 41 33 90l55 83h79zm195 0l-71-110q27-5 44-24t17-48q0-33-22.5-54.5t-55.5-21.5q-34 0-56.5 22.5t-22.5 62.5q0 41 33 90l55 83h79z"/><glyph glyph-name="quotedblright" unicode="”" horiz-adv-x="400" d="M17 366l71 110q-27 5-44 24t-17 48q0 33 22.5 54.5t55.5 21.5q34 0 56.5-22.5t22.5-62.5q0-41-33-90l-55-83h-79zm195 0l71 110q-27 5-44 24t-17 48q0 33 22.5 54.5t55.5 21.5q34 0 56.5-22.5t22.5-62.5q0-41-33-90l-55-83h-79z"/><glyph glyph-name="quotedblbase" unicode="„" horiz-adv-x="400" d="M17-110l71 110q-27 5-44 24t-17 48q0 33 22.5 54.5t55.5 21.5q34 0 56.5-22.5t22.5-62.5q0-41-33-90l-55-83h-79zm195 0l71 110q-27 5-44 24t-17 48q0 33 22.5 54.5t55.5 21.5q34 0 56.5-22.5t22.5-62.5q0-41-33-90l-55-83h-79z"/><glyph glyph-name="dagger" unicode="†" horiz-adv-x="337" d="M27 475v83h99v92h85v-92h99v-83h-99v-199h-85v199h-99z"/><glyph glyph-name="daggerdbl" unicode="‡" horiz-adv-x="347" d="M31 499v76h100v75h84v-75h101v-76h-101v-73h101v-75h-101v-75h-84v75h-100v75h100v73h-100z"/><glyph glyph-name="bullet" unicode="•" horiz-adv-x="364" d="M336 262q0-66-44.5-109t-109.5-43-109 42.5-44 109.5 44 110 109 43 109.5-43 44.5-110z"/><glyph glyph-name="ellipsis" unicode="…" horiz-adv-x="670" d="M27 73q0 34 22.5 56.5t55.5 22.5 55.5-22.5 22.5-56.5-22.5-57-55.5-23-55.5 23-22.5 57zm230 0q0 34 22.5 56.5t55.5 22.5 55.5-22.5 22.5-56.5-22.5-57-55.5-23-55.5 23-22.5 57zm230 0q0 34 22.5 56.5t55.5 22.5 55.5-22.5 22.5-56.5-22.5-57-55.5-23-55.5 23-22.5 57z"/><glyph glyph-name="perthousand" unicode="‰" horiz-adv-x="984" d="M103 0l380 614h84l-380-614h-84zm-76 481q0 59 41.5 101t100.5 42 100.5-42 41.5-101-41.5-100-100.5-41-100.5 41-41.5 100zm616-348q0-59-41.5-101t-100.5-42-100.5 42-41.5 101 41.5 100 100.5 41 100.5-41 41.5-100zm-83 0q0 24-17 41t-42 17-42.5-17-17.5-41q0-25 17.5-42.5t42.5-17.5 42 17.5 17 42.5zm397 0q0-59-41-101t-100-42-101 42-42 101q0 58 42 99.5t101 41.5 100-41 41-100zm-83 0q0 24-17 41t-41 17q-25 0-42.5-17t-17.5-41q0-25 17.5-42.5t42.5-17.5q24 0 41 17.5t17 42.5zm-764 348q0-24 17-41t42-17q24 0 41.5 17t17.5 41q0 25-17.5 42.5t-41.5 17.5q-25 0-42-17.5t-17-42.5z"/><glyph glyph-name="guilsinglleft" unicode="‹" horiz-adv-x="254" d="M229 61h-112l-92 161 92 161h112l-92-161z"/><glyph glyph-name="guilsinglright" unicode="›" horiz-adv-x="254" d="M137 61h-112l92 161-92 161h112l92-161z"/><glyph glyph-name="fraction" unicode="⁄" horiz-adv-x="216" d="M336 614l-369-614h-87l369 614h87z"/><glyph glyph-name="Euro" unicode="€" horiz-adv-x="556" d="M26 333v77h58q23 98 87.5 156t151.5 58q86 0 140-48.5t72-135.5h-115q-20 72-97 72-84 0-115-102h166l-15-77h-164v-26q0-20 1-29h155l-16-77h-126q31-99 114-99 77 0 97 72h115q-18-87-72-135.5t-140-48.5q-87 0-151 57t-87 154h-59v77h48q-1 9-1 29v26h-47z"/><glyph glyph-name="uni2117" unicode="℗" horiz-adv-x="704" d="M669 307q0-136-92.5-226.5t-224.5-90.5-224.5 90.5-92.5 226.5 92.5 226.5 224.5 90.5 224.5-90.5 92.5-226.5zm-47 0q0 116-79 193.5t-191 77.5-191-77.5-79-193.5 79-193.5 191-77.5 191 77.5 79 193.5zm-232-72h-69v-111h-96v369h165q61 0 98-34t37-95-37-95-98-34zm40 129q0 45-49 45h-60v-90h60q49 0 49 45z"/><glyph glyph-name="trademark" unicode="™" horiz-adv-x="602" d="M20 550v64h228v-64h-77v-190h-74v190h-77zm427-190h-46l-51 146v-146h-67v254h88l53-153 54 153h87v-254h-67v146z"/><glyph glyph-name="uni2153" unicode="⅓" horiz-adv-x="717" d="M599 614l-431-614h-90l431 614h90zm-79-475v67h23q40 0 40 33 0 14-9 22.5t-25 8.5q-15 0-25.5-11t-12.5-26h-89q6 49 38.5 81t85.5 32q57 0 89.5-28.5t32.5-76.5q0-47-36-69 40-20 40-68 0-49-33.5-79t-91.5-30q-57 0-91.5 31.5t-38.5 83.5h94q2-17 12-27.5t27-10.5 26.5 9 9.5 25q0 33-40 33h-26zm-311 475v-341h-90v237l-88-43v92l115 55h63z"/><glyph glyph-name="uni2154" unicode="⅔" horiz-adv-x="784" d="M666 614l-431-614h-90l431 614h90zm-464-102q0 14-8.5 22t-22.5 8-23.5-10.5-9.5-23.5h-95q5 50 39 82.5t88 32.5q56 0 89.5-29.5t33.5-77.5q0-21-10-41.5t-21-32-33-33.5l-58-55h122v-78h-248v61l118 116q39 37 39 59zm385-372v65h23q41 0 41 34 0 14-9.5 23t-25.5 9-26-11-12-27h-89q6 49 38.5 81t85.5 32q57 0 89.5-28.5t32.5-76.5q0-47-36-69 40-20 40-68 0-49-33.5-79t-91.5-30q-57 0-91.5 31.5t-38.5 83.5h93q2-18 12-28.5t28-10.5q17 0 27 9.5t10 25.5-11 25-29 9h-27z"/><glyph glyph-name="uni215B" unicode="⅛" horiz-adv-x="728" d="M599 614l-431-614h-90l431 614h90zm-48-548q18 0 29.5 10t11.5 27q0 16-11.5 25.5t-29.5 9.5-30-9.5-12-25.5q0-17 12-27t30-10zm0 145q16 0 26 9.5t10 24.5-10 24.5-26 9.5q-17 0-27.5-9.5t-10.5-24.5 10.5-24.5 27.5-9.5zm0-216q-56 0-93.5 27t-37.5 73q0 58 54 78-43 22-43 74 0 47 34.5 73.5t85.5 26.5q49 0 84-26.5t35-73.5q0-52-44-74 54-19 54-78 0-46-36.5-73t-92.5-27zm-342 619v-341h-90v237l-88-43v92l115 55h63z"/><glyph glyph-name="uni215C" unicode="⅜" horiz-adv-x="762" d="M584 66q18 0 30 10t12 27q0 16-12 25.5t-30 9.5-29.5-9.5-11.5-25.5q0-17 11.5-27t29.5-10zm0 145q16 0 26.5 9.5t10.5 24.5-10.5 24.5-26.5 9.5-26.5-9.5-10.5-24.5 10.5-24.5 26.5-9.5zm0-216q-56 0-93 27t-37 73q0 58 54 78-43 22-43 74 0 47 34.5 73.5t84.5 26.5 85-26.5 35-73.5q0-51-44-74 54-19 54-78 0-46-37-73t-93-27zm48 619l-430-614h-90l431 614h89zm-492-202v66h23q41 0 41 33 0 15-9 24t-25 9-26.5-11-12.5-27h-89q6 49 38.5 81t86.5 32q56 0 89-29t33-77q0-21-10.5-40.5t-26.5-28.5q40-20 40-68 0-49-33-79t-91-30-92.5 31.5-37.5 84.5h93q1-18 11.5-29t27.5-11 27.5 10 10.5 26q0 33-41 33h-27z"/><glyph glyph-name="uni215D" unicode="⅝" horiz-adv-x="769" d="M591 66q18 0 29.5 10t11.5 27q0 16-11.5 25.5t-29.5 9.5-30-9.5-12-25.5q0-17 12-27t30-10zm0 145q16 0 26.5 9.5t10.5 24.5-10.5 24.5-26.5 9.5-26.5-9.5-10.5-24.5 10.5-24.5 26.5-9.5zm0-216q-56 0-93 27t-37 73q0 59 53 78-42 22-42 74 0 47 34.5 73.5t84.5 26.5 84.5-26.5 34.5-73.5q0-52-43-74 54-19 54-78 0-46-37-73t-93-27zm48 619l-431-614h-89l431 614h89zm-466-188q-19 0-38-17h-77v205h215v-76h-140v-52q20 13 51 13 52 0 83-31.5t31-82.5q0-53-33.5-85.5t-90.5-32.5q-58 0-93 30.5t-39 82.5h92q2-16 13-26t27-10q17 0 27.5 11.5t10.5 28.5q0 19-10.5 30.5t-28.5 11.5z"/><glyph glyph-name="uni215E" unicode="⅞" horiz-adv-x="708" d="M531 66q18 0 29.5 10t11.5 27q0 16-11.5 25.5t-29.5 9.5-30-9.5-12-25.5q0-17 12-27t30-10zm0 145q16 0 26 9.5t10 24.5-10 24.5-26 9.5-27-9.5-11-24.5 11-24.5 27-9.5zm0-216q-56 0-93.5 27t-37.5 73q0 58 54 78-43 22-43 74 0 47 34.5 73.5t85.5 26.5q50 0 84.5-26.5t34.5-73.5q0-52-43-74 54-20 54-78 0-46-37-73t-93-27zm48 619l-431-614h-89l430 614h90zm-299-63l-107-278h-94l102 261h-142v80h241v-63z"/><glyph glyph-name="minus" unicode="−" horiz-adv-x="560" d="M64 251v96h432v-96h-432z"/><glyph glyph-name="approxequal" unicode="≈" horiz-adv-x="576" d="M73 312v90q58 38 116 38 37 0 98-18.5t98-18.5q58 0 119 39v-90q-61-39-119-39-37 0-98.5 19t-97.5 19q-59 0-116-39zm0-153v89q57 39 116 39 36 0 97.5-19t98.5-19q60 0 119 39v-90q-60-38-119-38-37 0-98 18.5t-98 18.5q-58 0-116-38z"/><glyph glyph-name="notequal" unicode="≠" horiz-adv-x="576" d="M73 338v87h257l63 94h83l-63-94h91v-87h-149l-52-77h201v-86h-258l-63-94h-82l62 94h-90v86h148l51 77h-199z"/><glyph glyph-name="lessequal" unicode="≤" horiz-adv-x="448" d="M60 303v117l329 125v-103l-234-80 234-80v-102zm0-243v93h329v-93h-329z"/><glyph glyph-name="greaterequal" unicode="≥" horiz-adv-x="448" d="M389 420v-117l-329-123v102l233 80-233 80v103zm0-267v-93h-329v93h329z"/><glyph glyph-name="fi" unicode="ﬁ" horiz-adv-x="558" d="M504 447v-447h-124v447h124zm11 129q0-31-21.5-51t-51.5-20q-31 0-52.5 20t-21.5 51q0 30 22 50.5t52 20.5 51.5-20.5 21.5-50.5zm-199 71v-105q-17 12-44 12-61 0-61-62v-45h93v-100h-93v-347h-122v347h-73v100h73v53q0 75 43 117t115 42q42 0 69-12z"/><glyph glyph-name="fl" unicode="ﬂ" horiz-adv-x="558" d="M504 650v-650h-124v650h124zm-188-3v-105q-17 12-44 12-61 0-61-62v-45h93v-100h-93v-347h-122v347h-73v100h73v53q0 75 43 117t115 42q42 0 69-12z"/><glyph glyph-name="i.dot" horiz-adv-x="232" d="M178 447v-447h-124v447h124zm12 132q0-31-22-51t-52-20-52 20-22 51q0 30 22 50.5t52 20.5 52-20.5 22-50.5z"/><glyph glyph-name="space_uni0326" horiz-adv-x="500" d="M185-225l46 62q-22 4-36 20t-14 40q0 28 20.5 46t50.5 18q29 0 49-19t20-50q0-34-33-78l-27-39h-76z"/><glyph glyph-name="space_uni0326.alt" horiz-adv-x="500" d="M316 696l-47-64q22-5 36.5-21.5t14.5-40.5q0-28-21-46.5t-51-18.5-50.5 19-20.5 51q0 36 33 80l30 41h76z"/><glyph glyph-name="space_dotbelowcomb" horiz-adv-x="500" d="M323-109q0-30-21.5-50t-51.5-20-51.5 20-21.5 50 21.5 50 51.5 20 51.5-20 21.5-50z"/><glyph glyph-name="caron.Slovak" horiz-adv-x="500" d="M272 483h-97l38 167h97z"/><glyph glyph-name="cedilla.alt" horiz-adv-x="500" d="M265-186h-110l70 139h114z"/><glyph glyph-name="grave.cap" horiz-adv-x="500" d="M357 669h-122l-93 122h135z"/><glyph glyph-name="acute.cap" horiz-adv-x="500" d="M264 669h-122l80 122h135z"/><glyph glyph-name="circumflex.cap" horiz-adv-x="500" d="M302 796l100-127h-105l-47 54-47-54h-105l100 127h104z"/><glyph glyph-name="caron.cap" horiz-adv-x="500" d="M198 668l-100 127h105l47-54 47 54h105l-100-127h-104z"/><glyph glyph-name="tilde.cap" horiz-adv-x="500" d="M328 802h71q0-63-21-101t-64-38q-26 0-61.5 21t-51.5 21q-27 0-29-39h-71q0 63 21 101t64 38q26 0 61.5-21t51.5-21q27 0 29 39z"/><glyph glyph-name="macron.cap" horiz-adv-x="500" d="M128 669v91h243v-91h-243z"/><glyph glyph-name="breve.cap" horiz-adv-x="500" d="M249 663q-61 0-97.5 35t-36.5 99h88q0-48 46-48 47 0 47 48h88q0-64-36.5-99t-98.5-35z"/><glyph glyph-name="dotaccent.cap" horiz-adv-x="500" d="M324 734q0-30-22-50.5t-52-20.5-52 20.5-22 50.5q0 31 22 51t52 20 52-20 22-51z"/><glyph glyph-name="dieresis.cap" horiz-adv-x="500" d="M100 730q0 29 19 48.5t48 19.5q28 0 47.5-19.5t19.5-48.5q0-27-19.5-46.5t-47.5-19.5-47.5 19.5-19.5 46.5zm165 0q0 29 19.5 48.5t47.5 19.5 48-19.5 20-48.5q0-27-20-46.5t-48-19.5-47.5 19.5-19.5 46.5z"/><glyph glyph-name="ring.cap" horiz-adv-x="500" d="M349 743q0-41-28.5-69t-70.5-28-70.5 28-28.5 69 28.5 69 70.5 28 70.5-28 28.5-69zm-59 0q0 17-12 28.5t-28 11.5-27.5-11.5-11.5-28.5 11.5-28 27.5-11q17 0 28.5 11.5t11.5 27.5z"/><glyph glyph-name="hungarumlaut.cap" horiz-adv-x="500" d="M193 669h-102l66 122h105zm148 0h-103l67 122h104z"/><glyph glyph-name="exclamdown.cap" horiz-adv-x="217" d="M30 544q0 32 22.5 54.5t55.5 22.5 56-22.5 23-54.5q0-33-23-55.5t-56-22.5-55.5 22.5-22.5 55.5zm3-544l30 416h91l30-416h-151z"/><glyph glyph-name="questiondown.cap" horiz-adv-x="456" d="M301 543q0-33-23-55.5t-56-22.5-56 22.5-23 55.5q0 32 23 54.5t56 22.5 56-22.5 23-54.5zm-281-373q0 16 3 30.5t10 29 12 24.5 17.5 25 18 21.5 21 23 19.5 20.5q36 38 36 71h123q-2-36-13.5-60t-42.5-60q-5-6-25-27.5t-27-30.5-15-26-8-34q0-33 20.5-53.5t56.5-20.5q37 0 58 24t23 61h132q-9-88-67-143.5t-149-55.5q-94 0-148.5 49t-54.5 132z"/><glyph glyph-name="guilsinglleft.cap" horiz-adv-x="254" d="M229 141h-112l-92 161 92 161h112l-92-161z"/><glyph glyph-name="guilsinglright.cap" horiz-adv-x="254" d="M137 141h-112l92 161-92 161h112l92-161z"/><glyph glyph-name="guillemotleft.cap" horiz-adv-x="420" d="M223 141h-106l-92 161 92 161h106l-92-161zm172 0h-106l-92 161 92 161h106l-92-161z"/><glyph glyph-name="guillemotright.cap" horiz-adv-x="420" d="M303 141h-106l92 161-92 161h106l92-161zm-172 0h-106l92 161-92 161h106l92-161z"/><glyph glyph-name="slash.cap" horiz-adv-x="373" d="M5-64l248 734h115l-248-734h-115z"/><glyph glyph-name="backslash.cap" horiz-adv-x="373" d="M120 670l248-734h-115l-248 734h115z"/><glyph glyph-name="bar.cap" horiz-adv-x="228" d="M59-64v734h110v-734h-110z"/><glyph glyph-name="periodcentered.cap" horiz-adv-x="214" d="M29 300q0 34 22.5 56.5t55.5 22.5 55.5-22.5 22.5-56.5-22.5-57-55.5-23-55.5 23-22.5 57z"/><glyph glyph-name="bullet.cap" horiz-adv-x="364" d="M336 299q0-66-44.5-109t-109.5-43-109 43-44 109q0 67 44 110.5t109 43.5 109.5-43.5 44.5-110.5z"/><glyph glyph-name="hyphen.cap" horiz-adv-x="317" d="M38 245v109h241v-109h-241z"/><glyph glyph-name="endash.cap" horiz-adv-x="471" d="M38 254v91h395v-91h-395z"/><glyph glyph-name="emdash.cap" horiz-adv-x="842" d="M38 254v91h766v-91h-766z"/><glyph glyph-name="parenleft.cap" horiz-adv-x="325" d="M30 303q0 139 74 237.5t201 129.5v-125q-71-19-114-83t-43-159 43-159 114-83v-125q-127 31-201 129.5t-74 237.5z"/><glyph glyph-name="parenright.cap" horiz-adv-x="325" d="M295 303q0-139-74-237.5t-201-129.5v125q71 19 114 83t43 159-43 159-114 83v125q127-31 201-129.5t74-237.5z"/><glyph glyph-name="bracketleft.cap" horiz-adv-x="322" d="M175 563v-520h127v-107h-243v734h243v-107h-127z"/><glyph glyph-name="bracketright.cap" horiz-adv-x="322" d="M147 43v520h-127v107h243v-734h-243v107h127z"/><glyph glyph-name="braceleft.cap" horiz-adv-x="353" d="M213 220v-148q0-29 29-29h91v-107h-108q-57 0-93 36t-36 94v154q0 29-29 29h-47v108h47q29 0 29 29v154q0 58 36 94t93 36h108v-107h-91q-29 0-29-29v-148q0-54-47-83 47-29 47-83z"/><glyph glyph-name="braceright.cap" horiz-adv-x="353" d="M140 72v148q0 54 47 83-47 29-47 83v148q0 29-29 29h-91v107h108q57 0 93-36t36-94v-154q0-29 29-29h47v-108h-47q-29 0-29-29v-154q0-58-36-94t-93-36h-108v107h91q29 0 29 29z"/><glyph glyph-name="at.cap" horiz-adv-x="768" d="M574 478l-41-236q-7-47 30-47 46 0 74 46t28 125q0 104-72 164t-186 60q-133 0-217-85.5t-84-222.5q0-61 18.5-109t48.5-78 70.5-49.5 81-27.5 83.5-8q116 0 224 48v-73q-94-47-224-47-76 0-143 20.5t-122 60.5-87 108-32 155q0 161 107 271t276 110q148 0 242-84.5t94-212.5q0-117-59-180t-144-63q-76 0-112 53-14-24-41-38t-56-14q-62 0-99 43t-37 108q0 86 52.5 149t132.5 63q28 0 51.5-10.5t33.5-26.5l6 28h103zm-144-220l18 100q-5 16-20.5 26.5t-36.5 10.5q-38 0-62.5-33t-24.5-79q0-29 15-47.5t43-18.5q42 0 68 41z"/><glyph glyph-name="Euro.lt" d="M25 333v77h53q22 98 82.5 156t142.5 58q81 0 132.5-48.5t67.5-135.5h-113q-17 72-87 72-75 0-103-102h151l-14-77h-149v-55h141l-14-77h-114q28-100 102-100 70 0 87 73h113q-16-87-67.5-135.5t-132.5-48.5-141.5 57-83.5 154h-53v77h42v55h-42z"/><glyph glyph-name="dollar.lt" d="M217-89v97q-74 12-121.5 56.5t-60.5 115.5h124q25-74 114-74 43 0 68 19t25 52q0 28-17 43.5t-56 24.5l-98 24q-146 34-146 163 0 70 46 117.5t122 57.5v91h106v-95q65-15 104.5-56.5t52.5-104.5h-119q-23 67-106 67-40 0-63.5-18.5t-23.5-49.5q0-47 64-64l104-25q150-37 150-168 0-71-44.5-117.5t-118.5-58.5v-97h-106z"/><glyph glyph-name="cent.lt" d="M55 233q0 89 45 150t120 78v91h106v-91q60-14 96-56.5t43-104.5h-121q-3 28-23 44.5t-51 16.5q-42 0-67-35t-25-93q0-57 25-92t67-35q31 0 51 16t23 44h121q-7-62-43-104.5t-96-55.5v-93h-106v92q-75 17-120 78t-45 150z"/><glyph glyph-name="sterling.lt" d="M227 424v-73h129v-97h-129v-60q0-63-21-91h276v-103h-445v103h51q20 35 20 91v60h-71v97h71v71q0 87 52.5 144.5t139.5 57.5q79 0 127.5-45.5t55.5-120.5h-114q-8 61-67 61-37 0-56-26t-19-69z"/><glyph glyph-name="yen.lt" d="M47 256v84h106l-139 274h134l115-237 113 237h130l-141-274h106v-84h-149v-56h149v-84h-149v-116h-126v116h-149v84h149v56h-149z"/><glyph glyph-name="florin.lt" d="M130 253v100h83l20 112q14 77 60 118t119 41q37 0 68-12v-105q-22 12-54 12-58 0-70-62l-19-104h86v-100h-103l-47-267q-13-79-51.5-119t-113.5-40q-38 0-69 12v99q24-11 54-11 26 0 38 14.5t18 46.5l46 265h-65z"/><glyph glyph-name="zero.lt" d="M260-10q-107 0-171 87.5t-64 229.5 64 229.5 171 87.5 171-87.5 64-229.5-64-229.5-171-87.5zm0 520q-57 0-84-55.5t-27-147.5 27-147.5 84-55.5q56 0 83 55.5t27 147.5-27 147.5-83 55.5z"/><glyph glyph-name="one.lt" d="M72 0v111h157v357l-155-78v126l198 98h81v-503h138v-111h-419z"/><glyph glyph-name="two.lt" d="M334 436q0 33-21.5 53.5t-57.5 20.5q-37 0-58.5-23.5t-23.5-61.5h-132q9 87 67 143t147 56q95 0 150.5-49.5t55.5-133.5q0-52-30.5-96.5t-91.5-106.5l-119-127h248v-111h-425v83l194 205q6 6 17.5 19t16.5 19 15 17 14 16.5 11 15 10 16 6.5 15 5 15.5 1.5 15z"/><glyph glyph-name="three.lt" d="M218 263v99h38q41 0 66 20t25 57q0 33-23 55t-61 22q-40 0-63.5-24t-26.5-61h-124q10 84 68.5 138.5t149.5 54.5q93 0 147-49.5t54-129.5q0-44-21-80.5t-54-52.5q42-18 64-54.5t22-81.5q0-81-57.5-133.5t-154.5-52.5q-102 0-162 54t-68 146h128q4-42 29-66.5t70-24.5q40 0 66 22.5t26 58.5q0 38-27 60.5t-71 22.5h-40z"/><glyph glyph-name="four.lt" d="M356 614l-200-387h135v127h116v-127h92v-105h-92v-122h-114v122h-273v92l212 400h124z"/><glyph glyph-name="five.lt" d="M265 300q-59 0-94-41h-102v355h369v-111h-265v-125q41 28 104 28 91 0 147-57t56-149q0-94-59-152t-156-58q-99 0-160 54t-69 146h127q5-41 32.5-65.5t70.5-24.5 69 28 26 72-26 72-70 28z"/><glyph glyph-name="six.lt" d="M168 198q0-46 28.5-74.5t74.5-28.5q44 0 72 28.5t28 74.5q0 48-28 77t-72 29q-46 0-74.5-29t-28.5-77zm314 261h-124q-19 60-81 60-52 0-85.5-52t-34.5-120v-9q16 29 50.5 47t79.5 18q90 0 145-58.5t55-143.5q0-90-59-150.5t-158-60.5q-126 0-187 111-43 77-43 193 0 146 64 238t172 92q169 0 206-165z"/><glyph glyph-name="seven.lt" d="M477 523l-209-523h-128l204 502h-302v112h435v-91z"/><glyph glyph-name="eight.lt" d="M261 91q44 0 72.5 23.5t28.5 63.5-28.5 63.5-72.5 23.5q-43 0-71-23.5t-28-63.5 28.5-63.5 70.5-23.5zm0 278q36 0 61.5 21t25.5 56q0 36-25.5 57.5t-61.5 21.5q-35 0-60-21.5t-25-57.5q0-35 25-56t60-21zm0-379q-95 0-158 48t-63 130q0 56 30.5 95t76.5 52q-40 17-64 53t-24 83q0 81 58.5 127t143.5 46q86 0 145-46t59-127q0-47-24.5-83t-64.5-53q46-13 77-52t31-95q0-82-63.5-130t-159.5-48z"/><glyph glyph-name="nine.lt" d="M352 416q0 46-28.5 74.5t-74.5 28.5q-44 0-72-28.5t-28-74.5q0-48 28-77t72-29q46 0 74.5 29t28.5 77zm-314-261h124q19-60 81-60 52 0 85.5 52t34.5 120v9q-16-29-50.5-47t-79.5-18q-90 0-145 58.5t-55 143.5q0 90 59 150.5t158 60.5q126 0 187-111 43-77 43-193 0-146-64-238t-172-92q-169 0-206 165z"/><glyph glyph-name="period.tab" horiz-adv-x="260" d="M51 73q0 34 23 56.5t56 22.5 55.5-22.5 22.5-56.5-22.5-57-55.5-23-56 23-23 57z"/><glyph glyph-name="comma.tab" horiz-adv-x="260" d="M39-109l73 112q-26 5-43.5 24t-17.5 48q0 33 23 54.5t56 21.5q34 0 56-22.5t22-62.5q0-43-33-90l-56-85h-80z"/><glyph glyph-name="colon.tab" horiz-adv-x="260" d="M52 73q0 34 22.5 56.5t55.5 22.5 55.5-22.5 22.5-56.5-22.5-57-55.5-23-55.5 23-22.5 57zm0 285q0 34 22.5 56.5t55.5 22.5 55.5-22.5 22.5-56.5-22.5-57-55.5-23-55.5 23-22.5 57z"/><glyph glyph-name="semicolon.tab" horiz-adv-x="260" d="M39-109l73 112q-26 5-43 24t-17 48q0 33 22.5 54.5t55.5 21.5q34 0 56-22.5t22-62.5q0-42-32-90l-57-85h-80zm13 467q0 34 22.5 56.5t55.5 22.5 55.5-22.5 22.5-56.5-22.5-57-55.5-23-55.5 23-22.5 57z"/><glyph glyph-name="space.tab" horiz-adv-x="260"/><glyph glyph-name="percent.lt" d="M20 501q0 51 35.5 87t85.5 36q52 0 87.5-36t35.5-87q0-50-35.5-85.5t-87.5-35.5q-50 0-85.5 35.5t-35.5 85.5zm71 0q0-21 14.5-35.5t35.5-14.5q22 0 37 14.5t15 35.5q0 22-15 37t-37 15q-21 0-35.5-15t-14.5-37zm409-388q0-51-35.5-87t-85.5-36q-52 0-87.5 36t-35.5 87q0 50 35.5 85.5t87.5 35.5q50 0 85.5-35.5t35.5-85.5zm-71 0q0 21-14.5 35.5t-35.5 14.5q-22 0-37-14.5t-15-35.5q0-22 15-37t37-15q21 0 35.5 15t14.5 37zm-398-113l375 614h83l-375-614h-83z"/><glyph glyph-name="perthousand.lt" horiz-adv-x="800" d="M35 0l385 614h83l-385-614h-83zm65 501q0-21 14.5-35.5t36.5-14.5q21 0 36 14.5t15 35.5q0 22-15 37t-36 15q-22 0-36.5-15t-14.5-37zm410-388q0-51-36-87t-86-36q-51 0-87 36t-36 87q0 50 36 85.5t87 35.5q50 0 86-35.5t36-85.5zm-72 0q0 21-14.5 35.5t-35.5 14.5q-22 0-37-14.5t-15-35.5q0-22 15-37t37-15q21 0 35.5 15t14.5 37zm-409 388q0 51 35.5 87t86.5 36 86.5-36 35.5-87q0-50-35.5-85.5t-86.5-35.5-86.5 35.5-35.5 85.5zm747-388q0-51-36-87t-86-36q-51 0-87 36t-36 87q0 50 36 85.5t87 35.5q50 0 86-35.5t36-85.5zm-71 0q0 21-15 35.5t-36 14.5-36.5-14.5-15.5-35.5q0-22 15.5-37t36.5-15 36 15 15 37z"/><glyph glyph-name="plus.lt" d="M212 515h96v-168h168v-96h-168v-167h-96v167h-168v96h168v168z"/><glyph glyph-name="minus.lt" d="M44 251v96h432v-96h-432z"/><glyph glyph-name="multiply.lt" d="M194 298l-122 120 67 66 120-121 121 121 67-66-121-120 121-121-67-67-121 121-120-121-67 67z"/><glyph glyph-name="divide.lt" d="M44 251v96h432v-96h-432zm145 221q0 29 21 50t50 21 50-21 21-50-21-49.5-50-20.5-50 20.5-21 49.5zm0-346q0 29 21 49.5t50 20.5 50-20.5 21-49.5-21-50-50-21-50 21-21 50z"/><glyph glyph-name="equal.lt" d="M44 175v87h431v-87h-431zm0 163v88h431v-88h-431z"/><glyph glyph-name="less.lt" d="M96 236v123l328 152v-108l-240-106 240-105v-109z"/><glyph glyph-name="greater.lt" d="M424 359v-123l-329-153v109l240 105-240 106v108z"/><glyph glyph-name="plusminus.lt" d="M214 548h91v-130h164v-90h-164v-130h-91v130h-164v90h164v130zm-164-486v91h419v-91h-419z"/><glyph glyph-name="lessequal.lt" d="M95 303v117l329 125v-103l-234-80 234-80v-102zm0-243v93h329v-93h-329z"/><glyph glyph-name="greaterequal.lt" d="M424 420v-117l-329-123v102l234 80-234 80v103zm0-267v-93h-329v93h329z"/><glyph glyph-name="notequal.lt" d="M44 338v87h257l63 94h83l-63-94h91v-87h-149l-52-77h201v-86h-258l-63-94h-82l62 94h-90v86h148l51 77h-199z"/><glyph glyph-name="approxequal.lt" d="M44 312v90q59 38 116 38 36 0 98-18.5t98-18.5q58 0 119 39v-90q-61-39-119-39-36 0-97.5 19t-98.5 19q-58 0-116-39zm0-153v89q58 39 116 39 37 0 98.5-19t97.5-19q60 0 119 39v-90q-60-38-119-38-36 0-98 18.5t-98 18.5q-57 0-116-38z"/>" k="15"/>" u2="7" k="46"/>" u2="3" k="7"/>" u2="2" k="30"/></font>
</defs>
</svg>
